<?xml version="1.0" encoding="utf-8"?>
<!-- Generator: Adobe Illustrator 25.2.3, SVG Export Plug-In . SVG Version: 6.00 Build 0)  -->
<svg version="1.1" id="Layer_1" xmlns="http://www.w3.org/2000/svg" xmlns:xlink="http://www.w3.org/1999/xlink" x="0px" y="0px"
	 viewBox="0 0 484 165.12" style="enable-background:new 0 0 484 165.12;" xml:space="preserve">
<style type="text/css">
	.st0{fill:#FFFFFF;}
</style>
<path class="st0" d="M167.93,66.12c0,0.3-0.02,0.59,0,0.89c0.12,1.48,0.73,2.14,2.18,2.49c1.77,0.43,3.54,0.24,5.31,0.05
	c3.24-0.33,6.48-0.73,9.75-0.39c2.05,0.22,4.16,0.17,6.05,1.23c0.25,0.14,0.56,0.22,0.85,0.23c1.58,0.06,2.62,1.02,3.61,2.09
	c0.24,0.26,0.44,0.56,0.49,0.9c0.28,1.89,1.08,3.65,1.31,5.54c0.12,0.97,0.06,1.93-0.37,2.83c-0.38,0.78-0.65,1.6-0.93,2.42
	c-0.43,1.24-1.56,1.95-2.33,2.93c-0.32,0.4-0.77,0.71-1.09,1.11c-0.94,1.16-2.18,1.5-3.58,1.29c-1.56-0.23-3-0.04-4.31,0.88
	c-0.39,0.27-0.85,0.42-1.32,0.47c-2.89,0.29-5.77,0.83-8.7,0.62c-0.9-0.06-1.79-0.18-2.59-0.58c-1.75-0.86-3.62-1.15-5.54-1.17
	c-1.34-0.01-2.37-0.41-3.15-1.56c-0.57-0.83-1.36-1.5-1.89-2.37c-0.76-1.25-1.22-2.59-1.2-4.07c0.01-1.07-0.17-2.11-0.34-3.16
	c-0.37-2.28,0.08-4.37,1.7-6.1c0.66-0.7,0.99-1.52,1.05-2.46c0.05-0.9-0.11-1.77-0.22-2.66c-0.25-2.08,0.13-3.94,1.31-5.77
	c1.27-1.98,1.65-4.38,1.18-6.64c-0.58-2.78-0.02-5.45,0.18-8.17c0.02-0.22,0.04-0.47,0.16-0.64c0.99-1.5,1.61-3.23,2.87-4.56
	c0.55-0.58,1.17-0.98,1.94-1.15c0.93-0.21,1.73-0.65,2.5-1.22c1.29-0.96,2.88-1.25,4.36-1.8c0.49-0.18,1.03,0,1.5,0.25
	c0.73,0.39,1.53,0.55,2.34,0.64c1.77,0.2,3.48,0.72,5.25,0.9c0.84,0.09,1.63,0.03,2.4-0.24c1.53-0.54,3.2-0.64,4.66-1.45
	c0.44-0.24,0.99-0.22,1.44,0c1.26,0.63,2.62,0.87,3.97,1.18c1.39,0.32,2.17,1.31,2.79,2.45c0.51,0.93,0.28,1.86-0.21,2.75
	c-0.74,1.33-1.97,2.13-3.16,2.95c-0.54,0.37-1.16,0.27-1.65-0.16c-1.05-0.89-2.28-0.98-3.57-0.83c-1.18,0.14-1.68,0.93-1.15,2
	c0.82,1.65,0.91,3.42,1.04,5.19c0.05,0.65-0.12,1.26-0.59,1.7c-2.19,2.06-4.01,4.5-6.49,6.27c-0.72,0.52-1.48,0.87-2.34,1.06
	c-0.69,0.15-1.31,0.43-1.85,0.89c-0.51,0.43-1.09,0.68-1.75,0.73c-2.08,0.15-4.1-0.01-5.92-1.18c-0.78-0.51-1.66-0.76-2.59-0.79
	c-1.75-0.06-2.85,0.79-3.25,2.5C167.91,64.99,167.91,65.55,167.93,66.12 M180.44,73.18c-2.15-0.16-4.29-0.14-6.44,0.02
	c-0.68,0.05-1.31,0.27-1.82,0.73c-0.65,0.58-1.41,0.88-2.26,1.02c-0.66,0.11-1.31,0.24-1.96,0.39c-1.76,0.4-3.11,1.88-3.27,3.67
	c-0.08,0.96-0.06,1.92-0.04,2.89c0.02,0.71,0.34,1.31,0.83,1.85c1.03,1.12,2.27,1.78,3.77,2.03c1.46,0.24,2.94,0.41,4.37,0.81
	c1.23,0.34,2.44,0.31,3.65-0.04c0.73-0.21,1.46-0.25,2.19-0.03c0.89,0.26,1.76,0.23,2.61-0.12c1.57-0.66,3.23-0.91,4.9-1.09
	c1.51-0.16,2.94-0.55,4.35-1.12c1.67-0.66,2.38-1.83,2.49-3.56c0.18-2.74-1.85-5.34-4.53-5.68c-0.77-0.1-1.51-0.28-2.11-0.8
	c-0.81-0.69-1.75-0.97-2.81-0.96C183.06,73.2,181.75,73.18,180.44,73.18 M170.57,54.87c0,0.15,0,0.3,0,0.44
	c0,2.07,0.63,2.73,2.7,2.89c0.76,0.06,1.53,0.12,2.28,0.26c1.98,0.37,3.92,0.39,5.85-0.27c0.73-0.25,1.44-0.59,1.72-1.31
	c0.44-1.14,1.25-1.92,2.14-2.68c0.74-0.64,1.42-1.4,1.18-2.48c-0.31-1.39-0.55-2.81-1.11-4.14c-0.73-1.75-4.17-3.53-5.99-2.92
	c-1.49,0.5-2.99,0.82-4.51,1.13c-1.15,0.24-1.95,0.91-2.32,2.05c-0.17,0.52-0.43,1-0.74,1.45c-0.44,0.64-0.71,1.35-0.85,2.12
	C170.69,52.55,170.58,53.7,170.57,54.87"/>
<path class="st0" d="M80.19,43.38c-1.91,0-3.68,0.26-5.41,0.86c-1.03,0.35-1.69,0.97-2.09,2.02c-0.9,2.4-2.54,4.02-5.12,4.56
	c-2.07,0.43-5.05-1.05-5.93-2.96c-0.38-0.82-0.27-1.68,0.16-2.43c0.99-1.73,1.9-3.49,3.26-5c1.08-1.19,2.34-2.11,3.57-3.09
	c0.93-0.75,2.05-1.05,3.25-1.05c1.93,0.01,3.84-0.29,5.76-0.37c2.42-0.1,4.89-0.2,7.26,0.6c0.99,0.34,2.04,0.37,3.07,0.48
	c0.85,0.09,1.64,0.31,2.31,0.89c0.57,0.49,1.23,0.81,1.91,1.12c0.49,0.22,0.94,0.53,1.09,1.05c0.44,1.55,1.54,2.69,2.41,3.97
	c0.96,1.42,1.03,2.8,0.05,4.18c-0.49,0.69-0.73,1.45-0.86,2.26c-0.3,1.88-0.43,3.78-0.47,5.68c-0.05,2.57-0.13,5.13-0.44,7.69
	c-0.09,0.76-0.14,1.53-0.01,2.29c0.25,1.53,1.77,2.14,3.04,1.23c0.12-0.09,0.24-0.18,0.34-0.29c1.38-1.55,3.07-1.36,4.79-0.84
	c1.08,0.33,1.42,2.21,0.67,3.34c-0.28,0.42-0.67,0.73-1.03,1.07c-1.38,1.31-2.7,2.67-4.13,3.94c-1.53,1.36-3.24,1.25-5.02,0.8
	c-0.55-0.14-0.87-0.61-1.16-1.09c-1.39-2.24-3.23-3.01-5.81-2.45c-0.07,0.02-0.16,0.02-0.22,0.05c-1.52,0.93-3.24,1.56-4.59,2.75
	c-0.75,0.66-1.51,1.18-2.5,1.33c-0.15,0.02-0.3,0.04-0.43,0.1c-2,0.89-3.99,0.7-5.99,0c-0.73-0.25-1.5-0.29-2.27-0.35
	c-1.03-0.09-1.92-0.42-2.62-1.21c-0.32-0.36-0.72-0.65-1.19-0.7c-2.15-0.25-3.48-1.76-4.85-3.17c-1.27-1.31-1.71-2.84-1.53-4.74
	c0.15-1.63,0.41-3.18,0.86-4.76c0.52-1.82,1.73-2.95,3.07-4.13c1.95-1.72,4.4-2.01,6.73-2.65c3.15-0.86,6.42-0.71,9.63-1.05
	c2.06-0.22,4.07-0.79,5.88-1.89c1.77-1.08,2.22-4.18,0.8-5.68C84.71,43.93,82.53,43.3,80.19,43.38 M74.17,70.02
	c1.21,0.05,2.41-0.06,3.61-0.21c1.24-0.15,2.3-0.64,3.27-1.44c1.18-0.97,2.34-1.97,3.84-2.46c0.62-0.2,1.03-0.72,1.18-1.34
	c0.33-1.32,0.86-2.5,1.73-3.56c0.49-0.6,0.5-1.34,0.07-2.01c-0.54-0.84-1.27-1.48-2.28-1.63c-1.46-0.21-2.91-0.2-4.24,0.59
	c-0.67,0.4-1.39,0.61-2.16,0.72c-1.11,0.15-2.21,0.36-3.13,1.03c-0.79,0.57-1.66,0.85-2.62,0.92c-0.76,0.06-1.52,0.2-2.28,0.2
	c-1.76,0-3.05,0.85-4.13,2.13c-1.41,1.66-0.92,4.39,0.91,5.54C69.84,69.71,71.98,69.95,74.17,70.02"/>
<path class="st0" d="M300.61,35.96c1.41,0.03,2.81-0.12,4.21-0.25c2.46-0.23,4.93-0.29,7.31,0.59c0.82,0.3,1.69,0.34,2.55,0.42
	c0.97,0.1,1.89,0.35,2.71,0.9c0.7,0.47,1.49,0.77,2.28,1.05c0.71,0.25,1.24,0.71,1.54,1.41c0.33,0.76,0.85,1.38,1.37,2
	c0.97,1.16,1.96,2.33,1.72,4.02c-0.03,0.2-0.01,0.41-0.09,0.58c-0.96,2.3-0.82,4.7-0.65,7.09c0.2,2.79,0.15,5.58,0.28,8.37
	c0.05,0.99,0.1,1.98,0.29,2.95c0.31,1.59,1.71,2.13,2.83,0.96c1.43-1.5,3.06-1.27,4.74-0.86c1.09,0.27,1.69,1.66,1.37,2.91
	c-0.18,0.69-0.58,1.25-1.07,1.75c-1.35,1.37-2.71,2.74-4.22,3.93c-1.58,1.25-4.26,0.92-5.52-0.66c-1.07-1.34-2.33-2.4-4.16-2.55
	c-1.15-0.09-2.21,0.07-3.15,0.8c-0.47,0.36-1,0.64-1.56,0.84c-0.72,0.25-1.3,0.7-1.79,1.27c-0.5,0.59-1.13,0.93-1.87,1.14
	c-0.64,0.18-1.28,0.38-1.9,0.64c-1.14,0.47-2.3,0.46-3.4,0.02c-1.26-0.51-2.54-0.78-3.88-0.89c-0.94-0.08-1.77-0.41-2.47-1.06
	c-0.32-0.3-0.68-0.59-1.11-0.73c-2.36-0.72-4-2.48-5.81-4c-0.96-0.81-1.29-1.91-1.49-3.18c-0.36-2.24,0.44-4.24,0.89-6.31
	c0.08-0.39,0.31-0.72,0.59-1.01c2.35-2.55,5.27-3.98,8.67-4.55c2.78-0.47,5.57-0.79,8.39-0.86c1.86-0.04,3.65-0.61,5.34-1.39
	c1.45-0.67,2.22-1.81,2.31-3.42c0.09-1.64-0.76-2.74-2.07-3.49c-1.56-0.89-3.25-1.5-5.08-1.39c-1.76,0.1-3.55-0.1-5.25,0.67
	c-1.17,0.53-1.91,1.24-2.29,2.5c-1.05,3.57-4.51,5.11-7.88,3.58c-1.13-0.52-2.01-1.37-2.71-2.36c-0.62-0.88-0.45-1.89,0.12-2.72
	c1.17-1.72,1.99-3.65,3.21-5.33c0.95-1.31,2.17-2.35,3.6-3.14c0.33-0.18,0.71-0.21,1.08-0.21
	C299.27,35.95,299.94,35.96,300.61,35.96 M304.56,68.94c1.21-0.08,2.41-0.17,3.62-0.23c1.23-0.07,2.27-0.51,3.21-1.32
	c1.11-0.96,2.2-1.98,3.65-2.46c0.74-0.25,1.1-0.92,1.23-1.65c0.19-1.1,0.5-2.14,0.95-3.17c0.66-1.51-0.38-3.37-2.02-3.62
	c-1.28-0.2-2.6-0.18-3.8,0.3c-1.41,0.55-2.85,0.94-4.32,1.29c-0.58,0.14-1.19,0.29-1.61,0.7c-0.96,0.94-2.15,1.11-3.4,1.22
	c-1.05,0.09-2.12,0.14-3.12,0.56c-1.54,0.64-2.41,1.76-2.42,3.13c-0.01,1.98,0.68,3.05,2.38,3.75c0.32,0.13,0.64,0.26,0.94,0.44
	C301.31,68.73,302.9,68.98,304.56,68.94"/>
<path class="st0" d="M19.68,23.2c1.47-0.01,3.29-0.18,5.09-0.49c1.1-0.19,1.94,0.17,2.76,0.89c1.55,1.34,1.97,3.04,1.7,4.95
	c-0.29,2.06-0.19,4.14-0.3,6.21c-0.1,1.76,1.06,2.94,2.83,2.85c2.86-0.13,5.72-0.32,8.57-0.53c1.73-0.12,3.4,0.15,5.05,0.59
	c0.83,0.23,1.53,0.74,2.04,1.43c0.87,1.17,1.84,2.25,2.84,3.32c0.7,0.74,1,1.63,1,2.63c0,1.33,0.17,2.6,0.93,3.75
	c0.33,0.5,0.37,1.12,0.38,1.72c0.03,1.53-0.03,3.06-0.26,4.58c-0.34,2.23-0.25,4.48-0.44,6.72c-0.1,1.18-0.33,2.17-1.29,2.92
	c-0.52,0.4-0.88,0.96-1.07,1.58c-0.45,1.42-1.36,2.51-2.41,3.5c-0.97,0.92-1.99,1.77-2.95,2.7c-0.66,0.64-1.42,1.06-2.29,1.29
	c-0.81,0.22-1.51,0.62-2.05,1.26c-0.4,0.46-0.88,0.79-1.48,0.93c-0.89,0.22-1.76,0.49-2.61,0.83c-0.82,0.33-1.65,0.24-2.45-0.12
	c-0.56-0.26-1.13-0.5-1.74-0.63c-1.11-0.24-2.07-0.68-2.91-1.49c-0.93-0.9-2.09-0.86-3.17-0.02c-0.97,0.76-2,1.24-3.26,1.17
	c-1.34-0.07-2.23-0.72-2.6-2.01c-0.18-0.62-0.23-1.26-0.2-1.91c0.22-4.07,0.68-8.11,1.14-12.16c0.28-2.5,0.5-5.01,0.68-7.52
	c0.23-3.15,0.46-6.3,1.22-9.39c0.25-1.02,0.13-2.07,0-3.1c-0.17-1.34-0.03-2.66,0.22-3.97c0.18-0.92,0.29-1.85,0.14-2.8
	c-0.17-1.07-0.81-1.65-1.8-1.92c-0.78-0.22-1.57-0.17-2.36-0.12c-1.22,0.07-2.35-0.18-3.39-0.85c-1.17-0.75-1.93-2.96-1.51-4.43
	c0.38-1.33,1.71-2.3,3.26-2.34C17.79,23.18,18.55,23.2,19.68,23.2 M35.84,70.07c1.15,0,2.74-0.39,3.58-1.04
	c1.93-1.5,3.71-3.17,5.36-4.98c0.67-0.73,0.84-1.62,0.52-2.56c-0.3-0.89-0.29-1.78-0.12-2.7c0.27-1.5,0.07-3.08,0.66-4.53
	c0.85-2.1,0.27-3.87-1.23-5.42c-0.65-0.67-1.14-1.42-1.35-2.34c-0.16-0.68-0.51-1.27-1.17-1.54c-1.06-0.43-2.01-1.05-3.04-1.54
	c-1.34-0.64-2.67-0.71-4.01,0.16c-1.86,1.21-3.68,2.47-5.63,3.53c-0.56,0.3-1.07,0.7-1.2,1.34c-0.41,2.13-1.1,4.2-1.16,6.4
	c-0.06,1.82-0.02,3.65-0.25,5.47c-0.11,0.86,0.03,1.67,0.51,2.41c0.32,0.5,0.56,1.05,0.7,1.63c0.21,0.9,0.75,1.55,1.55,1.98
	c1.17,0.62,2.17,1.45,3.11,2.37C33.53,69.59,34.57,70.12,35.84,70.07"/>
<path class="st0" d="M115.88,37.01c1.09,0,1.83-0.03,2.57,0.01c0.98,0.04,1.9,0.32,2.68,0.94c0.65,0.51,1.37,0.88,2.14,1.16
	c0.44,0.16,0.85,0.38,1.23,0.67c1.87,1.46,4.01,1.46,5.9-0.02c0.75-0.59,1.63-0.82,2.54-0.95c1.09-0.17,2.08-0.53,3.04-1.08
	c1.85-1.04,3.78-1.01,5.66-0.02c0.66,0.35,1.3,0.72,1.99,0.98c0.58,0.22,1.1,0.56,1.54,1.01c0.96,0.99,1.99,1.92,2.87,2.99
	c0.4,0.49,0.63,1.04,0.73,1.67c0.36,2.2,0.45,4.37,0.1,6.62c-0.33,2.1-0.15,4.29-0.4,6.42c-0.3,2.5-0.25,5.04-1.01,7.47
	c-0.14,0.45-0.18,0.92-0.17,1.39c0.02,1.56,0.71,2.6,2.21,3.04c1.09,0.32,2.04,0.86,2.95,1.5c1.4,0.99,1.64,2.88,0.42,4.1
	c-1.05,1.06-2.26,1.76-3.87,1.7c-1.42-0.06-2.76-0.17-4.08-0.82c-1.46-0.71-3.1-0.42-4.68-0.34c-1.28,0.06-2.56,0.19-3.85,0.22
	c-1.41,0.04-2.02-0.43-2.48-1.75c-0.88-2.5,0.35-4.2,3.01-4.17c1.11,0.01,2.22,0.15,3.32-0.1c2.15-0.48,3.41-2.42,2.91-4.56
	c-0.59-2.55-1.13-5.11-1.53-7.69c-0.11-0.69-0.06-1.4,0.27-2.03c0.86-1.62,0.69-3.3,0.36-4.99c-0.11-0.58-0.33-1.14-0.43-1.73
	c-0.3-1.86-1.41-3.11-2.93-4.08c-1.16-0.74-3.03-0.59-4.28,0.5c-1.16,1-2.45,1.81-3.62,2.81c-1.81,1.54-3.33,3.38-5.1,4.94
	c-1.6,1.42-1.87,3.07-1.88,4.97c-0.01,1.09-0.09,2.17-0.14,3.26c-0.05,1.2-0.5,2.24-1.21,3.2c-0.99,1.34-0.85,2.5,0.21,3.75
	c0.84,0.98,1.8,1.65,3.11,1.83c1.05,0.14,1.67,0.9,2.18,1.74c0.13,0.22,0.17,0.46,0.15,0.71c-0.06,1.57-1.72,3.23-3.27,3.25
	c-4.54,0.06-9.08,0.23-13.63,0.16c-0.65-0.01-1.28-0.05-1.91-0.22c-0.88-0.24-1.42-0.79-1.58-1.68c-0.15-0.89-0.05-1.75,0.72-2.36
	c1.3-1.02,2.69-1.77,4.43-1.83c2.59-0.09,3.64-1.4,3.22-3.98c-0.3-1.83-0.11-3.58,0.41-5.34c0.42-1.42,0.86-2.83,1.31-4.23
	c0.53-1.66,0.46-3.43-0.31-5.07c-0.46-0.97-0.72-1.99-0.84-3.05c-0.27-2.27-1.13-3.19-3.41-3.49c-1.3-0.17-2.32-0.82-3.24-1.66
	c-1.08-0.99-0.87-2.81,0.27-3.88C112.13,37.39,113.97,36.58,115.88,37.01"/>
<path class="st0" d="M425.12,36.08c3.66-0.11,6.6,1,9.22,3.03c1.52,1.18,3.85,1.15,5.23-0.17c0.68-0.65,1.44-1.03,2.38-1.04
	c1.1-0.01,2.04-0.41,2.96-1.02c1.5-0.98,3.15-0.96,4.74-0.25c0.9,0.4,1.75,0.91,2.71,1.16c0.33,0.09,0.64,0.26,0.89,0.51
	c1.13,1.07,2.24,2.16,3.39,3.2c0.7,0.63,1.01,1.41,1.21,2.31c0.57,2.57,0.7,5.17,0.89,7.78c0.23,3.08,0.24,6.17,0.56,9.24
	c0.12,1.19-0.12,2.41-0.11,3.62c0.01,2.24,0.81,3.16,3,3.6c1.08,0.22,2.07,0.71,2.93,1.38c1.41,1.1,1.41,3.5,0.13,4.73
	c-1.76,1.69-3.85,1.62-5.81,0.83c-2.46-1-4.9-0.98-7.42-0.69c-1.04,0.12-2.07,0.1-3.09-0.15c-1.27-0.31-2.5-2.2-2.3-3.51
	c0.2-1.33,1.61-2.37,3.12-2.3c0.62,0.03,1.23,0.1,1.85,0.1c2.72-0.03,4.37-2.4,3.19-4.84c-1.02-2.12-1.44-4.4-2.24-6.58
	c-0.34-0.94-0.35-1.93-0.08-2.92c0.51-1.9,0.2-3.74-0.61-5.48c-0.61-1.31-1.05-2.7-2.17-3.76c-1.98-1.88-3.62-1.96-5.76-0.25
	c-2.45,1.96-4.34,4.42-6.41,6.73c-1.81,2.02-1.95,4.13-1.56,6.52c0.14,0.88,0.27,1.76,0.28,2.65c0.01,0.86-0.18,1.65-0.58,2.42
	c-0.92,1.72-0.74,2.6,0.69,3.92c0.7,0.65,1.48,1.16,2.44,1.31c1.45,0.24,2.3,1.25,3.09,2.35c0.18,0.25,0.23,0.55,0.21,0.85
	c-0.1,1.58-1.64,3.15-3.19,3.01c-4.54-0.41-9.08,0.24-13.62-0.16c-1.97-0.17-2.95-0.69-2.99-3.09c-0.01-0.46,0.15-0.89,0.55-1.16
	c1.19-0.8,2.36-1.58,3.89-1.65c2.18-0.1,3.11-1.31,2.78-3.49c-0.04-0.29-0.11-0.58-0.2-0.86c-0.42-1.32-0.55-2.65-0.33-4.02
	c0.26-1.63,0.37-3.26,0.82-4.88c0.51-1.81,0.18-3.63-1.03-5.19c-0.54-0.69-0.86-1.48-1.03-2.35c-0.5-2.7-1.21-3.41-3.9-3.89
	c-1.36-0.24-2.41-1.01-3.31-1.98c-0.88-0.94-0.74-2.56,0.08-3.62C421.85,36.41,423.47,35.84,425.12,36.08"/>
<path class="st0" d="M279.98,42.73c0,0.9,0.02,1.77-0.01,2.63c-0.02,0.76,0.13,1.46,0.49,2.14c0.76,1.44-0.25,3.36-1.9,3.43
	c-2.68,0.1-4.48-0.62-5.75-3.07c-0.55-1.06-1.18-2.05-2.05-2.88c-0.6-0.57-1.31-0.88-2.12-0.96c-2.61-0.27-5.23-0.27-7.84-0.17
	c-1.81,0.06-3.15,1.09-4.16,2.51c-0.72,1.02-0.64,2.13,0.17,3.08c0.78,0.91,1.72,1.62,2.93,1.92c0.57,0.14,1.15,0.29,1.7,0.52
	c0.82,0.34,1.63,0.4,2.46,0.13c1.36-0.44,2.64-0.42,3.92,0.33c1.02,0.6,2.23,0.52,3.34,0.48c2.28-0.07,3.9,1.04,5.3,2.64
	c0.63,0.72,1.42,1.22,2.19,1.75c1.29,0.89,2.11,2.18,2.76,3.52c0.63,1.29,0.27,2.73-0.2,4.04c-0.36,1-0.71,1.99-0.84,3.06
	c-0.08,0.7-0.46,1.3-0.92,1.83c-0.85,1.01-1.93,1.76-2.91,2.63c-0.54,0.48-1.27,0.55-1.97,0.47c-1.27-0.14-2.21,0.29-3.16,1.21
	c-1.21,1.19-2.67,2.11-4.55,1.92c-0.86-0.09-1.73-0.03-2.59-0.05c-0.57-0.01-1.16-0.03-1.67-0.27c-2.61-1.25-5.37-1.12-8.14-0.97
	c-1.12,0.06-2.21,0.24-3.23,0.73c-0.57,0.27-1.15,0.26-1.7-0.08c-0.13-0.08-0.26-0.14-0.4-0.2c-1.98-1-2.32-1.63-2.14-3.88
	c0.12-1.44,0.5-2.73,1.54-3.82c0.96-1,0.88-2.48-0.19-3.62c-1.21-1.3-1.21-2.73-0.66-4.27c0.1-0.29,0.26-0.53,0.49-0.73
	c1.2-1.08,3.78-0.88,4.73,0.42c0.7,0.96,1.26,1.99,1.85,3.02c0.87,1.53,1.86,3,2.82,4.47c1.23,1.9,3.24,2.55,5.47,2.55
	c1.51,0,3.01,0.09,4.47,0.52c0.36,0.1,0.75,0.14,1.1,0.03c2.37-0.77,4.67-1.65,6.02-3.98c0.27-0.47,0.62-0.89,0.88-1.37
	c0.6-1.09,0.47-2.1-0.41-2.98c-2.82-2.82-6.11-4.6-10.2-4.7c-1.55-0.04-3.1-0.25-4.65-0.38c-0.5-0.04-1-0.14-1.39-0.45
	c-1.31-1.05-2.84-1.06-4.38-0.98c-3.2,0.16-4.09-0.37-5.3-3.33c-0.35-0.85-0.75-1.67-1.32-2.39c-0.12-0.15-0.27-0.32-0.3-0.5
	c-0.34-2.1-0.51-4.26,0.75-6.07c1.2-1.71,2.87-2.98,4.64-4.17c1.58-1.07,3.13-1.6,5-1.63c1.38-0.03,2.65-0.74,4.04-0.87
	c1.9-0.18,3.78-0.44,5.57,0.57c0.68,0.38,1.47,0.41,2.24,0.41c2.37-0.01,4.74-0.02,7.11-0.03c0.37,0,0.74,0.02,1.11,0.07
	c1.12,0.17,1.64,0.71,1.8,1.83C280.02,40.1,279.87,41.44,279.98,42.73"/>
<path class="st0" d="M379.52,55.57c-0.54-3.09,0.08-6.05,1.01-8.97c0.01-0.02,0.02-0.05,0.02-0.07c0.39-3.04,2.56-4.77,4.66-6.66
	c1.45-1.3,3.13-1.63,4.88-2.17c3-0.94,6.01-0.95,9.07-0.85c0.46,0.02,0.88,0.14,1.27,0.35c0.7,0.38,1.43,0.67,2.2,0.85
	c0.54,0.13,1.02,0.39,1.4,0.8c0.59,0.65,1.34,1,2.18,1.18c0.81,0.17,1.55,0.51,2.2,1.02c1.17,0.91,2.31,1.85,3.34,2.93
	c1.77,1.86,2.4,4.22,2.5,6.66c0.1,2.38,0.4,4.71,0.64,7.07c0.25,2.54,0.14,5.13-0.97,7.55c-0.27,0.59-0.37,1.23-0.39,1.88
	c-0.02,0.7-0.28,1.28-0.78,1.78c-1.44,1.45-2.77,3.02-4.36,4.33c-0.4,0.33-0.8,0.67-1.29,0.84c-0.8,0.27-1.53,0.67-2.28,1.05
	c-1.24,0.62-2.59,0.55-3.92,0.49c-0.71-0.03-1.43-0.11-2.14-0.07c-1.09,0.06-2.17,0.06-3.2-0.41c-0.67-0.3-1.37-0.15-2.03,0.06
	c-1.03,0.33-1.99,0.24-2.92-0.3c-0.72-0.42-1.52-0.59-2.32-0.73c-0.85-0.15-1.45-0.62-2.02-1.26c-1.35-1.49-2.19-3.35-3.6-4.78
	c-0.03-0.04-0.07-0.08-0.09-0.12c-1.43-3-3.08-5.92-2.99-9.41C379.59,57.59,379.6,56.57,379.52,55.57 M407.61,59.13
	c-0.31-1.88-0.21-3.76-0.51-5.57c-0.31-1.9-0.85-3.81-2.41-5.21c-0.77-0.69-1.42-1.51-2.1-2.29c-1.51-1.74-2.46-1.98-4.61-1.13
	c-1.42,0.56-2.81,0.64-4.2-0.15c-1.02-0.58-1.59-0.46-2.48,0.32c-1.27,1.12-2.21,2.52-3.29,3.8c-0.46,0.54-0.78,1.16-0.86,1.86
	c-0.11,1.01-0.59,1.78-1.24,2.54c-0.85,0.99-1.38,2.21-0.96,3.5c0.62,1.92,0.75,4.07,2.41,5.55c0.14,0.12,0.22,0.33,0.31,0.5
	c0.93,1.78,2.35,3.15,3.87,4.42c1.37,1.14,3.1,1.61,4.63,2.45c0.82,0.45,1.69,0.16,2.45-0.36c0.55-0.38,1.13-0.75,1.8-0.83
	c1.51-0.19,2.79-0.95,4.15-1.54c0.77-0.33,1.28-0.94,1.52-1.73c0.41-1.29,0.8-2.59,1.14-3.91
	C407.41,60.61,407.48,59.84,407.61,59.13"/>
<path class="st0" d="M354.59,65.33c0.09-1.47-0.33-2.8-0.88-4.16c-0.67-1.66-0.84-3.45-0.73-5.24c0.14-2.27,0.26-4.53-0.03-6.8
	c-0.06-0.44-0.08-0.9,0.01-1.33c0.66-3.29,0.19-6.6,0.15-9.89c-0.01-0.77-0.05-1.53-0.06-2.3c-0.01-0.7-0.11-1.37-0.33-2.04
	c-0.35-1.07-1.05-1.71-2.15-2.03c-1.6-0.46-3.25-0.23-4.86-0.44c-1.23-0.16-2.45-0.12-3.68,0.05c-1.12,0.16-2.27-0.06-3.38-0.29
	c-0.75-0.15-1.49-0.37-2.22-0.59c-1.32-0.38-1.78-1.19-1.46-2.53c0.2-0.86,0.68-1.6,1.21-2.27c1.38-1.76,3.04-3.02,5.46-2.85
	c1.28,0.09,2.56,0.11,3.83,0.39c1.07,0.23,2.16,0.29,3.24,0.16c3.02-0.36,5.85,0.38,8.6,1.48c2.52,1.01,3.55,3.18,2.88,5.79
	c-0.28,1.08-0.13,2.11,0.09,3.15c0.25,1.21,0.5,2.41,0.49,3.66c0,1.26-0.2,2.43-0.84,3.55c-0.73,1.28-0.71,2.71,0.1,3.88
	c1.46,2.1,1.19,4.41,1.13,6.72c-0.01,0.48-0.23,0.91-0.48,1.31c-0.52,0.85-0.75,1.76-0.71,2.75c0.03,0.64-0.02,1.28,0.02,1.93
	c0.05,1.04-0.11,2-0.68,2.9c-0.49,0.77-0.59,1.67-0.58,2.57c0.01,1.09,0.06,2.17,0.09,3.26c0.03,1.29,0.67,2.11,1.86,2.57
	c1.78,0.69,3.6,0.81,5.46,0.45c0.7-0.13,1.41-0.22,2.12-0.32c0.98-0.14,1.93-0.03,2.83,0.38c0.86,0.39,1.74,0.68,2.68,0.83
	c1.14,0.18,1.84,0.83,2.13,1.97c0.3,1.17-0.08,2.06-0.94,2.84c-1.64,1.48-3.54,1.23-5.38,0.69c-1.18-0.34-2.27-0.58-3.45-0.1
	c-0.56,0.23-1.13,0.05-1.62-0.28c-0.97-0.67-1.99-0.79-3.1-0.38c-1.74,0.65-3.47,0.61-5.2-0.1c-1.5-0.62-3.07-0.29-4.62-0.26
	c-3.33,0.07-6.66,0.14-10,0.21c-0.22,0-0.44-0.03-0.66-0.06c-0.95-0.1-1.83-0.35-2.15-1.39c-0.35-1.15-0.26-2.21,0.61-3.17
	c1.17-1.3,2.61-1.56,4.19-1.21c1.69,0.38,3.36,0.44,5.07,0.25c1.02-0.11,2.07-0.02,3.11-0.02c2.19-0.01,2.88-0.7,2.88-2.89
	C354.63,65.87,354.6,65.6,354.59,65.33"/>
<path class="st0" d="M471.51,103.96c-0.58,1.15-0.83,1.31-2.29,2.46c-3.22,2.55-6.99,5.52-14.23,3.24
	c-11.53-3.64-22.38-5.2-34.01-4.57c-7.5,0.41-15.32,0.59-22.94,1.4c-8.25,0.88-23.18,1.78-27.92,3.17
	c-2.58,0.54-7.27,0.24-9.21,0.38c-4.27,0.31-9.26-0.15-14.54,0.83c-3.44,0.64-6.8-0.53-10.32-0.37c-16.08,0.74-32.17,1.4-48.26,1.91
	c-19.74,0.62-39.48,0.8-59.24,0.2c-19.23-0.58-38.47-0.81-57.71-1.12c-3.85-0.06-7.62-0.4-11.37-1.17
	c-3.09-0.63-5.29,0.01-9.15,0.55c-1.79,0.25-3.55,0.36-5.38,0.1c-6.88-1.01-13.92-3.25-20.63-2.62
	c-13.07,1.23-25.61-1.71-38.07-3.52c-13.34-1.94-26.68-1.9-39.94-3.28c-6.86-0.71-21.53,0.74-22.14,5.18
	c-0.81,5.84,4.93,12.13,11.34,12.77c17.46,1.75,34.58-1.09,51.78-2.99c2.6-0.29,5.3,0.27,7.94,0.13
	c11.56-0.63,23.11-1.37,34.66-2.08c0.99-0.06,32.99-2.01,46.87,4.39c2.43,1.12,6.16,0.4,8.49,0.57c8.52,0.62,14.79-0.92,23.07-2.85
	c5.59-1.3,11.14,1.29,16.79,2.95c13.35,3.92,28.79-0.54,37.12-1.98c9.44-1.63,18.85,0.36,28.14,2.08c2.27,0.42,4.52,0.96,6.72,1.62
	c5.68,1.72,10.47-1.08,15.5-2.55c10.07-2.96,19.88-5.33,30.35-0.45c5.95,2.77,11.63,0.21,17.94-0.79
	c5.99-0.95,11.92-2.12,17.66-4.44c7.48-3.03,15.06,1.28,20.79,5.24c8.65,5.97,17.61,11.3,28.02,14.19
	c6.09,1.69,12.16,2.57,18.1-0.95c4.05-2.4,10.95-1.45,13.21,1.91c2.32,3.45,1.39,7.01-1.41,10.11c-3.24,3-9.49,2.08-14.98,0
	c-5.02-3.64-11.67-4.47-16.69-7.87c-6.71-4.55-14.63-6.96-21.4-11.63c-4.61-3.18-9.96-6.34-15.63-8.35
	c-3.69-1.31-7.23-0.9-11.1,0.31c-12.64,3.97-25.03,9.57-39.06,3.96c-7.63-3.05-15.87,0-23.41,1.26c-3.8,0.63-8.32,1.71-12.31,3.14
	c-3.26,1.16-6.57,1.06-9.82,0.43c-7.15-1.38-14.25-2.99-21.37-4.49c-3.97-0.83-7.41-0.1-11.31,1.45
	c-10.55,4.19-21.63,5.34-32.72,1.39c-6.95-2.48-13.76-2.94-21.32-1.97c-8.65,1.11-13.31,3.21-21.92,4.8
	c-3.11,0.58-8.16-0.67-8.9-0.96c-13.83-5.4-26.19-5.81-40.65-6.07c-9.8-0.18-18.31,0.19-27.97,2.04c-0.79,0.15-3.28,0.43-4.09,0.41
	c-10.8-0.3-20.97,1.3-31.08,3.02c-12.22,2.08-24.12,1.37-36.11,0.47c-5.3-0.4-9.86-2.82-13.26-7.53c-1.5-2.08-3.1-5.49-3.33-8.45
	c-0.4-5.04,2.19-7.48,8.07-9.73c12.09-4.61,63.41,1.15,77.68,3.43c4.2,0.67,8.26,2.91,12.68,1.32c2.96-1.07,5.9-0.88,8.8-0.01
	c3.85,1.14,7.75,1.51,11.78,1.59c6.13,0.11,12.26,0.4,18.37,0.65c12.31,0.51,24.48,2.69,36.96,1.69
	c10.32-0.83,20.49,1.93,31.17,0.82c9.06-0.94,18.59,1.03,28.04-0.15c6.31-0.79,12.43,1.52,19.32-0.26
	c6.71-1.73,14.48,0.12,21.93-0.24c13.17-0.64,26.38-1.73,39.6-1.43c9.45,0.21,16.91-2.82,26.42-0.93c0.78,0.15,6.24,0,8.49-0.69
	c9.36-2.89,14.74-0.97,24.13-1.61c11.65-0.8,23.4-1.76,35.16-1.99c8.24-0.17,17.29,0.61,25.08-2.61c7.86-3.25,12.73-3.95,17.72-1.4
	C473.26,99.72,472.43,101.84,471.51,103.96"/>
<g>
	<path d="M841.38-50.25c0,0.3-0.02,0.59,0,0.89c0.12,1.48,0.73,2.14,2.18,2.49c1.77,0.43,3.54,0.24,5.31,0.05
		c3.24-0.33,6.48-0.73,9.75-0.39c2.05,0.22,4.16,0.17,6.05,1.23c0.25,0.14,0.56,0.22,0.85,0.23c1.58,0.06,2.62,1.02,3.61,2.09
		c0.24,0.26,0.44,0.57,0.49,0.9c0.28,1.89,1.08,3.65,1.31,5.54c0.12,0.97,0.06,1.93-0.37,2.83c-0.38,0.78-0.65,1.6-0.93,2.42
		c-0.43,1.24-1.56,1.95-2.33,2.93c-0.32,0.4-0.77,0.71-1.09,1.11c-0.94,1.16-2.18,1.5-3.58,1.29c-1.56-0.23-3-0.04-4.31,0.88
		c-0.39,0.27-0.85,0.42-1.32,0.47c-2.89,0.29-5.77,0.82-8.7,0.62c-0.9-0.06-1.79-0.18-2.59-0.58c-1.75-0.86-3.62-1.15-5.54-1.17
		c-1.34-0.01-2.37-0.41-3.15-1.55c-0.57-0.83-1.36-1.5-1.89-2.37c-0.76-1.25-1.22-2.59-1.2-4.07c0.01-1.07-0.17-2.11-0.34-3.16
		c-0.37-2.28,0.08-4.37,1.7-6.1c0.66-0.7,0.99-1.52,1.05-2.46c0.05-0.9-0.11-1.77-0.22-2.65c-0.25-2.08,0.13-3.94,1.31-5.77
		c1.27-1.98,1.65-4.38,1.18-6.64c-0.58-2.78-0.02-5.45,0.18-8.17c0.02-0.22,0.04-0.47,0.16-0.64c0.99-1.5,1.6-3.23,2.87-4.56
		c0.55-0.58,1.17-0.98,1.94-1.15c0.93-0.21,1.73-0.65,2.51-1.22c1.29-0.96,2.88-1.25,4.36-1.8c0.49-0.18,1.03,0,1.5,0.25
		c0.73,0.39,1.53,0.54,2.34,0.64c1.77,0.2,3.48,0.72,5.25,0.9c0.84,0.09,1.63,0.03,2.4-0.25c1.53-0.54,3.2-0.65,4.66-1.45
		c0.44-0.24,0.99-0.22,1.44,0c1.26,0.63,2.62,0.87,3.97,1.18c1.4,0.32,2.17,1.31,2.79,2.45c0.51,0.93,0.28,1.86-0.21,2.75
		c-0.74,1.33-1.97,2.13-3.16,2.95c-0.54,0.37-1.16,0.27-1.65-0.16c-1.05-0.89-2.28-0.98-3.57-0.83c-1.18,0.14-1.68,0.93-1.15,2
		c0.82,1.65,0.91,3.42,1.04,5.19c0.05,0.65-0.12,1.26-0.59,1.7c-2.19,2.06-4.01,4.5-6.49,6.27c-0.72,0.52-1.48,0.88-2.34,1.06
		c-0.69,0.15-1.31,0.43-1.85,0.89c-0.51,0.43-1.09,0.68-1.75,0.73c-2.08,0.15-4.1-0.01-5.92-1.18c-0.79-0.51-1.66-0.76-2.59-0.79
		c-1.75-0.06-2.85,0.8-3.25,2.5C841.36-51.38,841.35-50.81,841.38-50.25 M853.89-43.18c-2.15-0.16-4.29-0.14-6.44,0.01
		c-0.68,0.05-1.31,0.27-1.82,0.73c-0.65,0.58-1.41,0.88-2.26,1.03c-0.66,0.11-1.31,0.24-1.96,0.39c-1.76,0.4-3.11,1.88-3.27,3.67
		c-0.08,0.96-0.06,1.92-0.04,2.88c0.02,0.71,0.34,1.32,0.83,1.85c1.03,1.12,2.27,1.78,3.77,2.03c1.46,0.24,2.94,0.41,4.37,0.81
		c1.23,0.34,2.44,0.31,3.65-0.04c0.73-0.21,1.46-0.25,2.19-0.03c0.89,0.26,1.76,0.23,2.61-0.12c1.57-0.66,3.23-0.91,4.9-1.09
		c1.51-0.16,2.94-0.55,4.35-1.12c1.66-0.66,2.38-1.83,2.49-3.56c0.18-2.74-1.85-5.34-4.53-5.68c-0.77-0.1-1.51-0.28-2.11-0.8
		c-0.81-0.69-1.75-0.97-2.81-0.96C856.5-43.17,855.2-43.18,853.89-43.18 M844.02-61.5c0,0.15,0,0.3,0,0.44
		c0,2.07,0.63,2.73,2.7,2.88c0.76,0.06,1.53,0.12,2.28,0.26c1.98,0.37,3.92,0.39,5.85-0.27c0.73-0.25,1.44-0.59,1.72-1.3
		c0.44-1.14,1.25-1.92,2.14-2.68c0.74-0.64,1.42-1.4,1.18-2.48c-0.31-1.39-0.55-2.81-1.11-4.14c-0.73-1.75-4.17-3.53-5.99-2.92
		c-1.49,0.5-2.99,0.82-4.51,1.13c-1.15,0.24-1.95,0.91-2.32,2.05c-0.17,0.52-0.43,1-0.74,1.45c-0.44,0.64-0.71,1.35-0.85,2.11
		C844.14-63.82,844.03-62.66,844.02-61.5"/>
	<path d="M753.64-72.99c-1.91,0-3.68,0.26-5.41,0.86c-1.03,0.35-1.69,0.97-2.09,2.02c-0.9,2.4-2.54,4.02-5.12,4.56
		c-2.07,0.43-5.05-1.05-5.93-2.96c-0.38-0.82-0.27-1.68,0.16-2.43c0.99-1.73,1.9-3.49,3.26-5c1.07-1.19,2.34-2.11,3.57-3.09
		c0.93-0.75,2.05-1.05,3.25-1.05c1.93,0.01,3.84-0.29,5.76-0.37c2.42-0.1,4.89-0.2,7.26,0.6c0.99,0.34,2.04,0.37,3.07,0.48
		c0.85,0.09,1.64,0.31,2.31,0.89c0.56,0.49,1.23,0.81,1.91,1.12c0.49,0.22,0.94,0.53,1.09,1.05c0.44,1.55,1.54,2.69,2.41,3.97
		c0.96,1.42,1.03,2.79,0.05,4.18c-0.49,0.69-0.73,1.44-0.86,2.26c-0.3,1.88-0.43,3.78-0.47,5.68c-0.05,2.57-0.13,5.14-0.45,7.69
		c-0.09,0.76-0.14,1.53-0.01,2.29c0.25,1.53,1.77,2.14,3.04,1.23c0.12-0.09,0.24-0.18,0.34-0.29c1.38-1.55,3.07-1.36,4.79-0.84
		c1.08,0.33,1.42,2.21,0.67,3.34c-0.28,0.42-0.67,0.73-1.03,1.06c-1.38,1.31-2.7,2.67-4.13,3.94c-1.53,1.36-3.24,1.25-5.02,0.8
		c-0.55-0.14-0.87-0.61-1.16-1.09c-1.39-2.24-3.23-3.01-5.81-2.45c-0.07,0.02-0.16,0.02-0.22,0.05c-1.52,0.93-3.24,1.56-4.59,2.75
		c-0.75,0.66-1.51,1.18-2.5,1.33c-0.15,0.02-0.3,0.04-0.43,0.1c-2,0.89-3.99,0.7-5.99,0c-0.73-0.25-1.5-0.28-2.27-0.35
		c-1.03-0.09-1.92-0.42-2.62-1.21c-0.32-0.36-0.72-0.65-1.19-0.7c-2.15-0.25-3.48-1.76-4.85-3.17c-1.27-1.31-1.71-2.84-1.53-4.74
		c0.15-1.63,0.41-3.18,0.86-4.76c0.52-1.82,1.73-2.95,3.07-4.13c1.95-1.72,4.4-2.01,6.73-2.65c3.15-0.86,6.42-0.71,9.63-1.05
		c2.06-0.22,4.07-0.79,5.88-1.89c1.77-1.08,2.22-4.18,0.8-5.68C758.15-72.43,755.98-73.07,753.64-72.99 M747.62-46.35
		c1.21,0.05,2.41-0.06,3.61-0.21c1.24-0.15,2.3-0.64,3.27-1.44c1.17-0.97,2.34-1.97,3.84-2.46c0.62-0.2,1.03-0.72,1.18-1.34
		c0.33-1.31,0.86-2.5,1.72-3.56c0.49-0.6,0.5-1.34,0.07-2.01c-0.54-0.84-1.27-1.48-2.28-1.63c-1.46-0.21-2.91-0.2-4.24,0.59
		c-0.67,0.4-1.39,0.61-2.16,0.71c-1.11,0.15-2.21,0.36-3.13,1.04c-0.79,0.57-1.66,0.84-2.62,0.92c-0.76,0.06-1.52,0.2-2.29,0.2
		c-1.76,0-3.05,0.85-4.13,2.13c-1.41,1.66-0.92,4.39,0.91,5.54C743.29-46.66,745.43-46.42,747.62-46.35"/>
	<path d="M974.05-80.41c1.41,0.03,2.81-0.12,4.21-0.25c2.46-0.23,4.93-0.29,7.31,0.59c0.82,0.3,1.69,0.33,2.55,0.42
		c0.97,0.1,1.89,0.35,2.71,0.9c0.7,0.47,1.49,0.77,2.28,1.05c0.71,0.25,1.24,0.71,1.54,1.41c0.33,0.76,0.85,1.38,1.37,2
		c0.97,1.16,1.96,2.33,1.72,4.02c-0.03,0.2-0.01,0.41-0.09,0.58c-0.96,2.29-0.82,4.7-0.65,7.09c0.2,2.79,0.15,5.58,0.28,8.37
		c0.05,0.99,0.1,1.98,0.29,2.95c0.31,1.59,1.71,2.13,2.83,0.96c1.43-1.5,3.06-1.27,4.74-0.86c1.09,0.27,1.69,1.66,1.37,2.91
		c-0.18,0.69-0.58,1.25-1.07,1.75c-1.35,1.37-2.71,2.74-4.22,3.93c-1.58,1.25-4.26,0.92-5.52-0.66c-1.07-1.34-2.33-2.41-4.16-2.55
		c-1.15-0.09-2.21,0.07-3.15,0.8c-0.47,0.37-1,0.64-1.56,0.84c-0.72,0.25-1.3,0.7-1.79,1.27c-0.5,0.59-1.13,0.94-1.87,1.14
		c-0.64,0.18-1.28,0.38-1.9,0.63c-1.14,0.47-2.3,0.46-3.4,0.02c-1.26-0.51-2.54-0.78-3.88-0.89c-0.94-0.08-1.77-0.41-2.47-1.06
		c-0.32-0.3-0.68-0.59-1.11-0.73c-2.36-0.72-4-2.48-5.81-3.99c-0.96-0.81-1.29-1.91-1.49-3.18c-0.36-2.24,0.44-4.23,0.89-6.31
		c0.08-0.39,0.31-0.72,0.59-1.01c2.35-2.55,5.27-3.97,8.67-4.55c2.78-0.47,5.57-0.79,8.39-0.86c1.86-0.05,3.65-0.61,5.34-1.39
		c1.45-0.67,2.22-1.81,2.31-3.42c0.09-1.64-0.76-2.74-2.07-3.49c-1.56-0.89-3.25-1.5-5.08-1.39c-1.76,0.1-3.55-0.1-5.25,0.67
		c-1.17,0.53-1.91,1.24-2.29,2.5c-1.05,3.57-4.51,5.11-7.88,3.58c-1.13-0.51-2.01-1.37-2.71-2.36c-0.62-0.88-0.45-1.89,0.12-2.73
		c1.17-1.72,1.99-3.65,3.21-5.33c0.95-1.31,2.17-2.35,3.6-3.14c0.33-0.18,0.71-0.21,1.08-0.21
		C972.72-80.42,973.39-80.41,974.05-80.41 M978.01-47.43c1.21-0.08,2.41-0.17,3.62-0.24c1.23-0.07,2.27-0.51,3.21-1.32
		c1.11-0.96,2.2-1.97,3.65-2.46c0.74-0.25,1.1-0.92,1.23-1.65c0.19-1.1,0.5-2.14,0.95-3.17c0.66-1.51-0.38-3.37-2.02-3.62
		c-1.28-0.2-2.6-0.17-3.8,0.3c-1.41,0.55-2.85,0.94-4.32,1.29c-0.58,0.14-1.19,0.29-1.61,0.7c-0.96,0.94-2.15,1.11-3.4,1.22
		c-1.05,0.09-2.12,0.14-3.12,0.56c-1.54,0.64-2.41,1.76-2.42,3.13c-0.01,1.98,0.68,3.05,2.38,3.75c0.32,0.13,0.64,0.26,0.94,0.44
		C974.76-47.64,976.35-47.39,978.01-47.43"/>
	<path d="M693.13-93.17c1.47-0.01,3.29-0.18,5.09-0.49c1.1-0.19,1.94,0.17,2.76,0.89c1.55,1.34,1.97,3.04,1.7,4.95
		c-0.29,2.06-0.19,4.14-0.3,6.21c-0.1,1.76,1.06,2.94,2.83,2.85c2.86-0.13,5.72-0.32,8.57-0.53c1.73-0.12,3.4,0.15,5.05,0.6
		c0.83,0.22,1.53,0.74,2.04,1.42c0.87,1.18,1.84,2.26,2.84,3.32c0.7,0.74,1,1.63,1,2.63c0,1.33,0.17,2.6,0.93,3.75
		c0.33,0.5,0.37,1.12,0.38,1.72c0.03,1.53-0.03,3.06-0.26,4.58c-0.34,2.23-0.25,4.48-0.44,6.72c-0.1,1.18-0.33,2.16-1.29,2.92
		c-0.52,0.4-0.88,0.96-1.07,1.58c-0.45,1.42-1.36,2.51-2.41,3.5c-0.97,0.92-1.99,1.77-2.95,2.7c-0.66,0.64-1.42,1.05-2.29,1.29
		c-0.81,0.22-1.51,0.62-2.05,1.26c-0.4,0.46-0.88,0.79-1.48,0.93c-0.89,0.21-1.76,0.49-2.61,0.83c-0.82,0.33-1.65,0.24-2.45-0.12
		c-0.56-0.26-1.13-0.5-1.74-0.63c-1.11-0.24-2.07-0.68-2.91-1.49c-0.93-0.9-2.09-0.86-3.17-0.02c-0.97,0.76-2,1.24-3.26,1.17
		c-1.34-0.07-2.23-0.72-2.6-2.01c-0.18-0.62-0.23-1.26-0.2-1.91c0.22-4.07,0.68-8.12,1.14-12.16c0.28-2.5,0.5-5.01,0.68-7.52
		c0.23-3.15,0.46-6.3,1.22-9.39c0.25-1.02,0.13-2.07,0-3.1c-0.17-1.34-0.03-2.66,0.22-3.97c0.18-0.92,0.29-1.85,0.14-2.79
		c-0.17-1.07-0.81-1.65-1.8-1.92c-0.78-0.21-1.57-0.17-2.36-0.12c-1.22,0.07-2.35-0.18-3.39-0.85c-1.17-0.75-1.93-2.96-1.51-4.43
		c0.38-1.33,1.71-2.3,3.26-2.34C691.23-93.18,692-93.17,693.13-93.17 M709.28-46.29c1.15-0.01,2.74-0.39,3.58-1.04
		c1.93-1.5,3.71-3.17,5.36-4.98c0.67-0.73,0.84-1.62,0.52-2.56c-0.3-0.9-0.29-1.78-0.12-2.7c0.27-1.5,0.07-3.08,0.65-4.53
		c0.85-2.1,0.27-3.87-1.23-5.42c-0.65-0.67-1.14-1.42-1.35-2.34c-0.16-0.68-0.51-1.27-1.17-1.54c-1.06-0.43-2.01-1.05-3.04-1.54
		c-1.34-0.64-2.67-0.71-4.01,0.16c-1.86,1.21-3.68,2.47-5.63,3.53c-0.56,0.3-1.07,0.7-1.2,1.34c-0.41,2.13-1.1,4.2-1.16,6.4
		c-0.06,1.82-0.02,3.66-0.25,5.47c-0.11,0.86,0.03,1.67,0.51,2.41c0.32,0.5,0.56,1.05,0.7,1.63c0.21,0.9,0.75,1.55,1.55,1.98
		c1.17,0.62,2.17,1.45,3.11,2.37C706.98-46.78,708.01-46.25,709.28-46.29"/>
	<path d="M789.33-79.36c1.09,0,1.83-0.03,2.57,0.01c0.98,0.04,1.9,0.32,2.68,0.94c0.65,0.51,1.37,0.88,2.14,1.16
		c0.44,0.16,0.86,0.38,1.23,0.67c1.87,1.46,4.01,1.46,5.9-0.02c0.75-0.59,1.63-0.82,2.54-0.95c1.09-0.17,2.08-0.53,3.04-1.08
		c1.85-1.04,3.78-1.01,5.66-0.02c0.66,0.35,1.3,0.72,1.99,0.98c0.58,0.22,1.1,0.56,1.54,1.01c0.96,0.99,2,1.92,2.87,3
		c0.4,0.49,0.63,1.04,0.73,1.67c0.36,2.2,0.45,4.37,0.1,6.62c-0.33,2.1-0.15,4.29-0.4,6.42c-0.3,2.5-0.25,5.04-1.01,7.47
		c-0.14,0.45-0.18,0.92-0.17,1.39c0.02,1.56,0.71,2.6,2.21,3.04c1.09,0.32,2.04,0.86,2.95,1.5c1.4,0.99,1.64,2.88,0.42,4.1
		c-1.05,1.06-2.26,1.76-3.87,1.7c-1.42-0.06-2.76-0.17-4.08-0.82c-1.46-0.71-3.1-0.42-4.68-0.34c-1.28,0.06-2.56,0.19-3.84,0.22
		c-1.41,0.04-2.02-0.42-2.48-1.75c-0.88-2.5,0.35-4.2,3.01-4.17c1.11,0.01,2.22,0.15,3.32-0.1c2.15-0.48,3.41-2.42,2.91-4.56
		c-0.59-2.55-1.13-5.11-1.53-7.69c-0.11-0.69-0.06-1.4,0.27-2.03c0.86-1.62,0.69-3.3,0.36-4.99c-0.11-0.58-0.33-1.14-0.43-1.73
		c-0.3-1.85-1.41-3.11-2.93-4.08c-1.16-0.74-3.03-0.59-4.28,0.5c-1.16,1-2.45,1.81-3.62,2.8c-1.82,1.54-3.33,3.38-5.1,4.94
		c-1.61,1.42-1.87,3.07-1.88,4.97c-0.01,1.09-0.09,2.17-0.14,3.26c-0.05,1.2-0.5,2.24-1.21,3.2c-0.99,1.34-0.85,2.5,0.21,3.75
		c0.84,0.98,1.8,1.65,3.11,1.83c1.05,0.14,1.67,0.89,2.18,1.74c0.13,0.22,0.16,0.46,0.15,0.71c-0.06,1.57-1.72,3.23-3.27,3.25
		c-4.54,0.06-9.09,0.23-13.63,0.16c-0.65-0.01-1.28-0.05-1.91-0.22c-0.88-0.24-1.42-0.79-1.57-1.68s-0.05-1.75,0.72-2.36
		c1.3-1.02,2.69-1.77,4.43-1.83c2.59-0.09,3.64-1.41,3.22-3.98c-0.3-1.83-0.11-3.58,0.41-5.34c0.42-1.42,0.86-2.83,1.31-4.23
		c0.53-1.66,0.46-3.43-0.31-5.07c-0.46-0.97-0.72-1.99-0.84-3.05c-0.27-2.28-1.13-3.19-3.41-3.49c-1.3-0.17-2.32-0.82-3.24-1.66
		c-1.08-0.99-0.87-2.81,0.27-3.88C785.58-78.98,787.42-79.79,789.33-79.36"/>
	<path d="M1098.57-80.28c3.66-0.11,6.6,1,9.22,3.03c1.52,1.18,3.85,1.15,5.23-0.17c0.68-0.65,1.44-1.03,2.38-1.04
		c1.1-0.01,2.04-0.41,2.96-1.01c1.5-0.98,3.15-0.96,4.74-0.26c0.9,0.4,1.75,0.91,2.71,1.16c0.33,0.09,0.64,0.26,0.89,0.51
		c1.13,1.07,2.24,2.16,3.39,3.2c0.7,0.63,1.01,1.41,1.21,2.31c0.57,2.56,0.7,5.17,0.89,7.78c0.23,3.08,0.24,6.17,0.56,9.24
		c0.12,1.19-0.12,2.41-0.11,3.62c0.01,2.24,0.81,3.16,3,3.6c1.08,0.22,2.07,0.71,2.93,1.38c1.41,1.1,1.41,3.5,0.13,4.73
		c-1.76,1.69-3.85,1.62-5.81,0.83c-2.46-0.99-4.9-0.99-7.42-0.69c-1.04,0.12-2.07,0.1-3.09-0.15c-1.27-0.31-2.5-2.2-2.3-3.51
		c0.2-1.33,1.61-2.37,3.12-2.3c0.62,0.03,1.23,0.1,1.85,0.1c2.72-0.03,4.37-2.4,3.19-4.84c-1.02-2.12-1.44-4.4-2.24-6.58
		c-0.34-0.94-0.35-1.93-0.08-2.92c0.51-1.9,0.2-3.74-0.61-5.48c-0.61-1.31-1.05-2.7-2.17-3.76c-1.98-1.88-3.62-1.96-5.76-0.25
		c-2.45,1.96-4.34,4.42-6.41,6.74c-1.81,2.02-1.95,4.13-1.56,6.52c0.14,0.88,0.27,1.76,0.28,2.65c0.01,0.86-0.18,1.65-0.58,2.42
		c-0.92,1.72-0.74,2.6,0.69,3.92c0.7,0.65,1.48,1.16,2.44,1.31c1.45,0.24,2.3,1.25,3.09,2.35c0.18,0.25,0.23,0.55,0.21,0.85
		c-0.1,1.57-1.64,3.15-3.19,3.01c-4.54-0.41-9.08,0.24-13.62-0.16c-1.97-0.17-2.95-0.69-2.99-3.09c-0.01-0.46,0.15-0.89,0.55-1.16
		c1.19-0.8,2.36-1.58,3.89-1.65c2.18-0.09,3.11-1.31,2.78-3.49c-0.04-0.29-0.11-0.58-0.2-0.86c-0.42-1.32-0.55-2.65-0.33-4.02
		c0.26-1.63,0.37-3.26,0.82-4.88c0.51-1.81,0.18-3.63-1.03-5.19c-0.54-0.7-0.86-1.48-1.03-2.35c-0.5-2.7-1.21-3.41-3.9-3.89
		c-1.36-0.25-2.41-1.01-3.31-1.98c-0.88-0.94-0.74-2.56,0.08-3.62C1095.29-79.95,1096.92-80.52,1098.57-80.28"/>
	<path d="M953.42-73.63c0,0.9,0.02,1.77-0.01,2.63c-0.02,0.76,0.13,1.46,0.49,2.14c0.76,1.44-0.25,3.36-1.9,3.43
		c-2.68,0.1-4.48-0.62-5.75-3.07c-0.55-1.06-1.18-2.05-2.05-2.88c-0.6-0.57-1.31-0.88-2.12-0.96c-2.61-0.27-5.23-0.27-7.84-0.17
		c-1.81,0.06-3.15,1.09-4.16,2.52c-0.72,1.02-0.64,2.13,0.17,3.08c0.78,0.91,1.72,1.62,2.93,1.92c0.57,0.14,1.15,0.29,1.7,0.52
		c0.82,0.34,1.63,0.4,2.46,0.13c1.36-0.44,2.64-0.42,3.92,0.33c1.02,0.6,2.23,0.52,3.34,0.48c2.28-0.07,3.9,1.04,5.3,2.64
		c0.63,0.72,1.42,1.22,2.19,1.75c1.29,0.89,2.11,2.18,2.76,3.52c0.63,1.29,0.27,2.73-0.2,4.04c-0.36,1-0.71,1.99-0.84,3.06
		c-0.08,0.7-0.46,1.3-0.92,1.83c-0.85,1.01-1.93,1.76-2.91,2.63c-0.54,0.48-1.27,0.55-1.97,0.47c-1.27-0.14-2.21,0.29-3.16,1.21
		c-1.21,1.19-2.67,2.11-4.55,1.92c-0.86-0.09-1.73-0.03-2.59-0.05c-0.57-0.01-1.16-0.03-1.67-0.27c-2.61-1.25-5.37-1.12-8.14-0.97
		c-1.12,0.06-2.21,0.24-3.23,0.73c-0.57,0.27-1.15,0.26-1.7-0.08c-0.13-0.08-0.26-0.14-0.4-0.2c-1.98-1.01-2.32-1.63-2.14-3.88
		c0.12-1.44,0.5-2.73,1.54-3.82c0.96-1,0.88-2.48-0.19-3.62c-1.21-1.3-1.21-2.73-0.66-4.27c0.1-0.29,0.26-0.53,0.49-0.73
		c1.2-1.09,3.78-0.88,4.73,0.42c0.7,0.95,1.26,1.99,1.85,3.02c0.87,1.53,1.86,2.99,2.82,4.47c1.23,1.9,3.24,2.55,5.47,2.55
		c1.51,0,3.01,0.09,4.47,0.52c0.36,0.11,0.75,0.14,1.1,0.03c2.37-0.77,4.67-1.65,6.02-3.98c0.27-0.47,0.62-0.9,0.88-1.37
		c0.6-1.09,0.47-2.1-0.41-2.98c-2.82-2.82-6.11-4.6-10.2-4.7c-1.55-0.04-3.1-0.25-4.65-0.38c-0.5-0.04-1-0.14-1.39-0.45
		c-1.31-1.05-2.84-1.06-4.38-0.98c-3.2,0.16-4.09-0.37-5.3-3.33c-0.35-0.85-0.75-1.67-1.32-2.39c-0.12-0.15-0.27-0.33-0.3-0.5
		c-0.34-2.1-0.51-4.26,0.75-6.07c1.2-1.71,2.87-2.98,4.64-4.17c1.58-1.07,3.13-1.6,5-1.63c1.38-0.03,2.65-0.74,4.04-0.87
		c1.9-0.18,3.78-0.44,5.57,0.58c0.68,0.38,1.47,0.41,2.24,0.41c2.37-0.01,4.74-0.02,7.11-0.03c0.37,0,0.74,0.02,1.11,0.07
		c1.12,0.17,1.64,0.71,1.8,1.83C953.47-76.27,953.32-74.93,953.42-73.63"/>
	<path d="M1052.96-60.8c-0.54-3.09,0.08-6.05,1.01-8.97c0.01-0.02,0.02-0.05,0.02-0.07c0.39-3.04,2.56-4.78,4.66-6.66
		c1.45-1.3,3.13-1.63,4.88-2.17c3-0.94,6.01-0.95,9.07-0.85c0.46,0.01,0.88,0.14,1.27,0.35c0.7,0.38,1.43,0.67,2.2,0.85
		c0.54,0.13,1.02,0.39,1.4,0.8c0.59,0.65,1.34,1,2.18,1.18c0.81,0.17,1.55,0.51,2.2,1.02c1.17,0.91,2.31,1.85,3.34,2.92
		c1.77,1.86,2.4,4.22,2.5,6.66c0.1,2.38,0.4,4.71,0.64,7.07c0.25,2.54,0.14,5.13-0.97,7.55c-0.27,0.59-0.37,1.23-0.39,1.88
		c-0.02,0.7-0.28,1.28-0.78,1.78c-1.44,1.45-2.77,3.03-4.36,4.33c-0.4,0.33-0.8,0.67-1.29,0.84c-0.8,0.27-1.53,0.67-2.28,1.05
		c-1.24,0.62-2.59,0.55-3.92,0.49c-0.71-0.03-1.43-0.11-2.14-0.07c-1.09,0.06-2.17,0.06-3.2-0.41c-0.67-0.3-1.37-0.15-2.03,0.06
		c-1.03,0.33-1.99,0.24-2.92-0.3c-0.72-0.41-1.52-0.59-2.32-0.73c-0.85-0.15-1.45-0.63-2.02-1.26c-1.35-1.49-2.19-3.35-3.6-4.78
		c-0.03-0.04-0.07-0.08-0.09-0.12c-1.43-3-3.08-5.92-2.99-9.41C1053.04-58.78,1053.05-59.8,1052.96-60.8 M1081.05-57.24
		c-0.31-1.88-0.21-3.76-0.51-5.57c-0.31-1.9-0.85-3.81-2.41-5.21c-0.77-0.69-1.42-1.51-2.1-2.29c-1.51-1.74-2.46-1.98-4.61-1.13
		c-1.42,0.57-2.81,0.64-4.2-0.15c-1.02-0.58-1.59-0.46-2.48,0.32c-1.27,1.12-2.21,2.52-3.29,3.8c-0.46,0.54-0.78,1.16-0.86,1.86
		c-0.11,1.01-0.59,1.78-1.24,2.54c-0.85,0.99-1.38,2.21-0.96,3.5c0.62,1.92,0.75,4.07,2.41,5.55c0.14,0.13,0.22,0.33,0.31,0.5
		c0.93,1.78,2.35,3.15,3.87,4.42c1.37,1.14,3.1,1.61,4.63,2.45c0.82,0.45,1.69,0.16,2.45-0.36c0.55-0.38,1.13-0.75,1.8-0.83
		c1.51-0.19,2.79-0.95,4.15-1.54c0.77-0.33,1.28-0.94,1.52-1.73c0.41-1.29,0.8-2.59,1.14-3.91
		C1080.85-55.76,1080.93-56.53,1081.05-57.24"/>
	<path d="M1028.04-51.04c0.09-1.47-0.33-2.8-0.88-4.16c-0.67-1.66-0.84-3.45-0.73-5.24c0.14-2.27,0.26-4.53-0.03-6.8
		c-0.06-0.44-0.08-0.9,0.01-1.33c0.66-3.29,0.19-6.59,0.15-9.89c-0.01-0.76-0.05-1.53-0.06-2.29c-0.01-0.7-0.11-1.37-0.33-2.04
		c-0.35-1.07-1.05-1.71-2.15-2.03c-1.6-0.46-3.25-0.23-4.86-0.44c-1.23-0.16-2.45-0.12-3.68,0.05c-1.12,0.16-2.27-0.06-3.38-0.29
		c-0.75-0.15-1.49-0.37-2.22-0.59c-1.32-0.38-1.78-1.19-1.46-2.53c0.2-0.86,0.68-1.6,1.21-2.27c1.38-1.76,3.04-3.01,5.46-2.85
		c1.28,0.09,2.56,0.11,3.83,0.38c1.07,0.23,2.16,0.29,3.24,0.16c3.02-0.36,5.85,0.38,8.6,1.49c2.52,1.01,3.55,3.18,2.88,5.79
		c-0.28,1.08-0.13,2.11,0.09,3.15c0.25,1.21,0.5,2.41,0.49,3.66c0,1.26-0.2,2.43-0.84,3.55c-0.73,1.28-0.71,2.71,0.1,3.88
		c1.46,2.1,1.19,4.41,1.13,6.72c-0.01,0.48-0.23,0.91-0.48,1.31c-0.52,0.85-0.75,1.76-0.71,2.75c0.03,0.64-0.02,1.29,0.02,1.93
		c0.05,1.04-0.11,2-0.68,2.9c-0.49,0.77-0.59,1.67-0.58,2.57c0.01,1.09,0.06,2.17,0.09,3.26c0.03,1.29,0.67,2.11,1.86,2.57
		c1.78,0.69,3.6,0.81,5.46,0.45c0.7-0.13,1.42-0.22,2.12-0.32c0.98-0.14,1.93-0.03,2.83,0.38c0.86,0.39,1.74,0.68,2.68,0.83
		c1.14,0.18,1.84,0.83,2.13,1.98c0.3,1.17-0.08,2.06-0.94,2.84c-1.64,1.48-3.54,1.23-5.38,0.69c-1.18-0.34-2.27-0.58-3.45-0.1
		c-0.56,0.23-1.13,0.05-1.62-0.28c-0.97-0.67-1.99-0.79-3.1-0.38c-1.74,0.65-3.47,0.61-5.2-0.1c-1.5-0.62-3.07-0.29-4.62-0.26
		c-3.33,0.07-6.66,0.14-10,0.21c-0.22,0-0.44-0.03-0.66-0.06c-0.95-0.1-1.83-0.35-2.15-1.39c-0.35-1.15-0.26-2.21,0.61-3.17
		c1.17-1.3,2.61-1.56,4.19-1.21c1.69,0.38,3.36,0.44,5.07,0.25c1.02-0.11,2.07-0.02,3.11-0.03c2.19-0.01,2.88-0.7,2.88-2.89
		C1028.08-50.5,1028.05-50.77,1028.04-51.04"/>
</g>
<path d="M735.76-9.73c0.47,0.9,0.67,1.02,1.83,1.9c2.57,1.97,5.57,4.22,11.23,2.34c9-3.06,17.43-7.94,26.57-7.61
	c5.89,0.19,12-1.52,18-1.01c6.49,0.56,18.17-1.58,21.92-0.56c2.04,0.37,5.72,0.08,7.24,0.17c3.36,0.18,6.39-0.58,10.55,0.09
	c2.72,0.45,6.21-0.19,8.98-0.12c12.64,0.33,25.29,0.59,37.93,0.74c15.52,0.16,31.02,0,46.53-0.77c15.09-0.75,30.22-0.36,45.32-0.91
	c3.01-0.1,5.96-0.43,8.9-1.09c2.41-0.54,4.16-0.06,7.19,0.29c1.42,0.17,2.8,0.22,4.24,0c5.39-0.91,10.89-1.91,16.17-1.52
	c10.29,0.77,20.13,0.86,29.88-0.72c10.45-1.74,20.81,1.19,31.21-0.11c5.35-0.65,17.17,1.58,17.73,5.05
	c0.72,4.57-3.76,8.65-8.78,9.26c-13.69,1.67-27.18-0.33-40.72-1.55c-2.04-0.2-4.16,0.32-6.23,0.22c-9.09-0.31-18.17-0.72-27.25-1.08
	c-0.76-0.04-25.95-1.06-36.75,4.18c-1.87,0.93-4.84,0.42-6.65,0.62c-6.65,0.6-11.62-0.5-18.13-1.9c-4.46-0.92-8.74,1.2-13.16,2.58
	c-10.42,3.27-22.62,0.04-29.2-0.99c-7.43-1.12-14.8,0.59-22.07,2.06c-1.77,0.36-3.53,0.84-5.25,1.39c-4.43,1.44-8.23-0.69-12.2-1.74
	c-7.97-2.16-15.7-3.88-23.85,0.09c-4.63,2.31-9.13,0.36-14.1-0.33c-4.72-0.65-9.4-1.48-13.94-3.22c-5.92-2.24-11.81,1.26-16.25,4.46
	c-6.7,4.84-13.65,9.14-21.78,11.55c-4.76,1.42-9.51,2.22-14.23-0.44c-3.22-1.82-8.62-0.98-10.34,1.71c-1.77,2.73-0.98,5.52,1.26,7.9
	c2.59,2.28,7.48,1.49,11.76-0.22c3.89-2.96,9.09-3.72,12.98-6.46c5.2-3.67,11.39-5.66,16.62-9.48c3.57-2.56,7.72-5.13,12.14-6.79
	c2.88-1.09,5.67-0.84,8.72,0.07c9.99,2.89,19.8,7.13,30.74,2.51c5.96-2.52,12.47-0.28,18.41,0.64c2.99,0.43,6.56,1.2,9.71,2.23
	c2.58,0.9,5.18,0.74,7.73,0.21c5.59-1.2,11.14-2.6,16.71-3.84c3.1-0.73,5.82-0.23,8.89,0.92c8.35,3.15,17.09,3.86,25.73,0.57
	c5.39-2.03,10.77-2.48,16.71-1.83C951.2,0.45,954.9,2,961.68,3.15c2.45,0.41,6.39-0.67,6.99-0.89c10.78-4.48,20.48-4.97,31.81-5.4
	c7.7-0.3,14.4-0.16,22,1.17c0.62,0.09,2.57,0.28,3.21,0.25c8.48-0.4,16.49,0.7,24.46,1.9c9.61,1.43,18.96,0.7,28.35-0.21
	c4.16-0.4,7.7-2.33,10.31-6.11c1.14-1.66,2.33-4.37,2.48-6.68c0.24-3.96-1.84-5.85-6.5-7.52c-9.55-3.43-49.85-2.48-61.03-0.45
	c-3.29,0.58-2.42,0.66-6.36,0.38c-2.45-0.17-8.16-0.34-10.49,0.1c-2.97,0.54-6.09,0.43-9.25,0.57c-4.81,0.19-9.65-0.37-14.43-0.08
	c-9.65,0.61-19.21,1.63-29.02,1.03c-8.1-0.49-16.06,1.85-24.45,1.14c-7.16-0.62-14.6,1.08-22.03,0.31
	c-4.96-0.52-9.74,1.39-15.17,0.1c-5.31-1.25-11.38,0.31-17.23,0.14c-10.36-0.29-20.73-0.06-31.11,0.36
	c-7.41,0.32-13.18-1-20.67-0.38c-2.94,0.23-5.95,0.19-8.13,0.08c-7.68-0.37-10.2,0.8-17.59,0.45c-9.16-0.46-18.37,0.72-27.61,0.71
	c-6.47,0-13.51,0.81-17.39,0.11c-4.33-0.79-11.44-3.18-15.32-1.1C735.22-15.02,735.01-11.37,735.76-9.73"/>
<g>
	<path d="M841.38,217.68c0,0.3-0.02,0.59,0,0.89c0.12,1.48,0.73,2.14,2.18,2.49c1.77,0.43,3.54,0.24,5.31,0.05
		c3.24-0.33,6.48-0.73,9.75-0.38c2.05,0.22,4.16,0.17,6.05,1.23c0.25,0.14,0.56,0.21,0.85,0.23c1.58,0.06,2.62,1.02,3.61,2.09
		c0.24,0.26,0.44,0.56,0.49,0.9c0.28,1.89,1.08,3.65,1.31,5.54c0.12,0.97,0.06,1.93-0.37,2.82c-0.38,0.78-0.65,1.6-0.93,2.42
		c-0.43,1.24-1.56,1.95-2.33,2.93c-0.32,0.4-0.77,0.7-1.09,1.11c-0.94,1.16-2.18,1.5-3.58,1.29c-1.56-0.23-3-0.04-4.31,0.88
		c-0.39,0.27-0.85,0.42-1.32,0.47c-2.89,0.29-5.77,0.82-8.7,0.62c-0.9-0.06-1.79-0.18-2.59-0.58c-1.75-0.86-3.62-1.15-5.54-1.17
		c-1.34-0.01-2.37-0.41-3.15-1.55c-0.57-0.83-1.36-1.5-1.89-2.37c-0.76-1.25-1.22-2.59-1.2-4.07c0.01-1.07-0.17-2.11-0.34-3.16
		c-0.37-2.28,0.08-4.37,1.7-6.1c0.66-0.7,0.99-1.52,1.05-2.46c0.05-0.89-0.11-1.77-0.22-2.65c-0.25-2.08,0.13-3.94,1.31-5.77
		c1.27-1.98,1.65-4.38,1.18-6.64c-0.58-2.79-0.02-5.45,0.18-8.17c0.02-0.22,0.04-0.47,0.16-0.64c0.99-1.5,1.6-3.23,2.87-4.56
		c0.55-0.58,1.17-0.98,1.94-1.15c0.93-0.21,1.73-0.65,2.51-1.22c1.29-0.96,2.88-1.25,4.36-1.8c0.49-0.18,1.03,0,1.5,0.25
		c0.73,0.39,1.53,0.54,2.34,0.64c1.77,0.2,3.48,0.72,5.25,0.9c0.84,0.09,1.63,0.03,2.4-0.25c1.53-0.54,3.2-0.64,4.66-1.45
		c0.44-0.24,0.99-0.22,1.44,0c1.26,0.63,2.62,0.87,3.97,1.18c1.4,0.32,2.17,1.31,2.79,2.45c0.51,0.93,0.28,1.86-0.21,2.75
		c-0.74,1.33-1.97,2.13-3.16,2.95c-0.54,0.37-1.16,0.27-1.65-0.16c-1.05-0.89-2.28-0.98-3.57-0.83c-1.18,0.14-1.68,0.94-1.15,2
		c0.82,1.65,0.91,3.42,1.04,5.19c0.05,0.65-0.12,1.26-0.59,1.7c-2.19,2.06-4.01,4.5-6.49,6.27c-0.72,0.52-1.48,0.88-2.34,1.06
		c-0.69,0.15-1.31,0.43-1.85,0.89c-0.51,0.43-1.09,0.68-1.75,0.73c-2.08,0.15-4.1-0.01-5.92-1.18c-0.79-0.51-1.66-0.76-2.59-0.79
		c-1.75-0.06-2.85,0.79-3.25,2.5C841.36,216.54,841.35,217.11,841.38,217.68 M853.89,224.74c-2.15-0.16-4.29-0.14-6.44,0.01
		c-0.68,0.05-1.31,0.27-1.82,0.73c-0.65,0.59-1.41,0.88-2.26,1.03c-0.66,0.11-1.31,0.24-1.96,0.39c-1.76,0.4-3.11,1.88-3.27,3.67
		c-0.08,0.96-0.06,1.92-0.04,2.88c0.02,0.71,0.34,1.32,0.83,1.85c1.03,1.12,2.27,1.78,3.77,2.03c1.46,0.24,2.94,0.41,4.37,0.81
		c1.23,0.34,2.44,0.31,3.65-0.04c0.73-0.21,1.46-0.25,2.19-0.03c0.89,0.26,1.76,0.23,2.61-0.12c1.57-0.66,3.23-0.91,4.9-1.09
		c1.51-0.16,2.94-0.55,4.35-1.12c1.66-0.66,2.38-1.83,2.49-3.56c0.18-2.74-1.85-5.34-4.53-5.68c-0.77-0.1-1.51-0.28-2.11-0.8
		c-0.81-0.69-1.75-0.97-2.81-0.96C856.5,224.76,855.2,224.74,853.89,224.74 M844.02,206.42c0,0.15,0,0.29,0,0.44
		c0,2.07,0.63,2.73,2.7,2.88c0.76,0.06,1.53,0.12,2.28,0.26c1.98,0.37,3.92,0.39,5.85-0.27c0.73-0.25,1.44-0.59,1.72-1.3
		c0.44-1.14,1.25-1.91,2.14-2.68c0.74-0.64,1.42-1.4,1.18-2.48c-0.31-1.39-0.55-2.81-1.11-4.14c-0.73-1.75-4.17-3.53-5.99-2.92
		c-1.49,0.5-2.99,0.82-4.51,1.13c-1.15,0.24-1.95,0.91-2.32,2.05c-0.17,0.52-0.43,0.99-0.74,1.45c-0.44,0.64-0.71,1.35-0.85,2.12
		C844.14,204.11,844.03,205.26,844.02,206.42"/>
	<path d="M753.64,194.94c-1.91,0-3.68,0.26-5.41,0.86c-1.03,0.35-1.69,0.97-2.09,2.02c-0.9,2.4-2.54,4.02-5.12,4.56
		c-2.07,0.43-5.05-1.05-5.93-2.96c-0.38-0.82-0.27-1.68,0.16-2.43c0.99-1.73,1.9-3.49,3.26-5c1.07-1.2,2.34-2.11,3.57-3.09
		c0.93-0.75,2.05-1.05,3.25-1.05c1.93,0.01,3.84-0.29,5.76-0.37c2.42-0.1,4.89-0.2,7.26,0.6c0.99,0.34,2.04,0.37,3.07,0.48
		c0.85,0.09,1.64,0.31,2.31,0.89c0.56,0.49,1.23,0.81,1.91,1.12c0.49,0.22,0.94,0.53,1.09,1.05c0.44,1.55,1.54,2.69,2.41,3.96
		c0.96,1.42,1.03,2.8,0.05,4.18c-0.49,0.69-0.73,1.45-0.86,2.26c-0.3,1.88-0.43,3.78-0.47,5.68c-0.05,2.57-0.13,5.14-0.45,7.69
		c-0.09,0.76-0.14,1.53-0.01,2.29c0.25,1.53,1.77,2.13,3.04,1.23c0.12-0.09,0.24-0.18,0.34-0.29c1.38-1.55,3.07-1.36,4.79-0.84
		c1.08,0.33,1.42,2.21,0.67,3.34c-0.28,0.42-0.67,0.72-1.03,1.06c-1.38,1.31-2.7,2.67-4.13,3.94c-1.53,1.36-3.24,1.25-5.02,0.8
		c-0.55-0.14-0.87-0.62-1.16-1.09c-1.39-2.24-3.23-3.01-5.81-2.45c-0.07,0.02-0.16,0.02-0.22,0.05c-1.52,0.93-3.24,1.56-4.59,2.75
		c-0.75,0.66-1.51,1.18-2.5,1.33c-0.15,0.02-0.3,0.04-0.43,0.1c-2,0.89-3.99,0.7-5.99,0c-0.73-0.25-1.5-0.28-2.27-0.35
		c-1.03-0.09-1.92-0.42-2.62-1.21c-0.32-0.36-0.72-0.65-1.19-0.7c-2.15-0.25-3.48-1.76-4.85-3.17c-1.27-1.31-1.71-2.84-1.53-4.74
		c0.15-1.63,0.41-3.18,0.86-4.76c0.52-1.82,1.73-2.95,3.07-4.13c1.95-1.72,4.4-2.01,6.73-2.65c3.15-0.86,6.42-0.71,9.63-1.05
		c2.06-0.22,4.07-0.79,5.88-1.89c1.77-1.08,2.22-4.18,0.8-5.68C758.15,195.49,755.98,194.85,753.64,194.94 M747.62,221.58
		c1.21,0.05,2.41-0.06,3.61-0.21c1.24-0.15,2.3-0.64,3.27-1.44c1.17-0.97,2.34-1.97,3.84-2.46c0.62-0.2,1.03-0.72,1.18-1.34
		c0.33-1.31,0.86-2.5,1.72-3.56c0.49-0.61,0.5-1.34,0.07-2.01c-0.54-0.84-1.27-1.48-2.28-1.63c-1.46-0.21-2.91-0.2-4.24,0.59
		c-0.67,0.4-1.39,0.61-2.16,0.71c-1.11,0.15-2.21,0.36-3.13,1.04c-0.79,0.57-1.66,0.84-2.62,0.92c-0.76,0.06-1.52,0.2-2.29,0.2
		c-1.76,0-3.05,0.85-4.13,2.13c-1.41,1.66-0.92,4.39,0.91,5.54C743.29,221.27,745.43,221.5,747.62,221.58"/>
	<path d="M974.05,187.51c1.41,0.03,2.81-0.12,4.21-0.25c2.46-0.23,4.93-0.29,7.31,0.59c0.82,0.3,1.69,0.33,2.55,0.42
		c0.97,0.1,1.89,0.35,2.71,0.9c0.7,0.47,1.49,0.77,2.28,1.05c0.71,0.25,1.24,0.71,1.54,1.41c0.33,0.76,0.85,1.38,1.37,2.01
		c0.97,1.16,1.96,2.33,1.72,4.02c-0.03,0.2-0.01,0.41-0.09,0.58c-0.96,2.29-0.82,4.7-0.65,7.09c0.2,2.79,0.15,5.58,0.28,8.37
		c0.05,0.99,0.1,1.97,0.29,2.95c0.31,1.59,1.71,2.13,2.83,0.96c1.43-1.5,3.06-1.27,4.74-0.86c1.09,0.27,1.69,1.66,1.37,2.91
		c-0.18,0.69-0.58,1.25-1.07,1.75c-1.35,1.37-2.71,2.73-4.22,3.93c-1.58,1.25-4.26,0.92-5.52-0.66c-1.07-1.34-2.33-2.4-4.16-2.55
		c-1.15-0.09-2.21,0.07-3.15,0.8c-0.47,0.37-1,0.64-1.56,0.84c-0.72,0.25-1.3,0.7-1.79,1.27c-0.5,0.59-1.13,0.94-1.87,1.14
		c-0.64,0.18-1.28,0.38-1.9,0.63c-1.14,0.47-2.3,0.46-3.4,0.02c-1.26-0.51-2.54-0.78-3.88-0.89c-0.94-0.08-1.77-0.41-2.47-1.06
		c-0.32-0.3-0.68-0.59-1.11-0.73c-2.36-0.72-4-2.48-5.81-3.99c-0.96-0.81-1.29-1.91-1.49-3.18c-0.36-2.24,0.44-4.23,0.89-6.31
		c0.08-0.39,0.31-0.71,0.59-1.01c2.35-2.55,5.27-3.97,8.67-4.55c2.78-0.47,5.57-0.79,8.39-0.86c1.86-0.05,3.65-0.61,5.34-1.39
		c1.45-0.67,2.22-1.81,2.31-3.42c0.09-1.64-0.76-2.74-2.07-3.49c-1.56-0.89-3.25-1.5-5.08-1.39c-1.76,0.1-3.55-0.1-5.25,0.67
		c-1.17,0.53-1.91,1.24-2.29,2.5c-1.05,3.57-4.51,5.11-7.88,3.58c-1.13-0.51-2.01-1.37-2.71-2.36c-0.62-0.88-0.45-1.89,0.12-2.73
		c1.17-1.72,1.99-3.65,3.21-5.33c0.95-1.31,2.17-2.35,3.6-3.14c0.33-0.18,0.71-0.2,1.08-0.21
		C972.72,187.51,973.39,187.51,974.05,187.51 M978.01,220.49c1.21-0.08,2.41-0.17,3.62-0.24c1.23-0.07,2.27-0.51,3.21-1.32
		c1.11-0.96,2.2-1.97,3.65-2.46c0.74-0.25,1.1-0.92,1.23-1.65c0.19-1.1,0.5-2.14,0.95-3.17c0.66-1.51-0.38-3.37-2.02-3.62
		c-1.28-0.2-2.6-0.18-3.8,0.3c-1.41,0.55-2.85,0.94-4.32,1.29c-0.58,0.14-1.19,0.29-1.61,0.7c-0.96,0.95-2.15,1.12-3.4,1.22
		c-1.05,0.09-2.12,0.14-3.12,0.56c-1.54,0.64-2.41,1.76-2.42,3.13c-0.01,1.98,0.68,3.05,2.38,3.75c0.32,0.13,0.64,0.26,0.94,0.44
		C974.76,220.29,976.35,220.54,978.01,220.49"/>
	<path d="M693.13,174.76c1.47-0.01,3.29-0.18,5.09-0.49c1.1-0.19,1.94,0.17,2.76,0.89c1.55,1.34,1.97,3.04,1.7,4.95
		c-0.29,2.06-0.19,4.14-0.3,6.21c-0.1,1.76,1.06,2.94,2.83,2.85c2.86-0.13,5.72-0.32,8.57-0.53c1.73-0.12,3.4,0.15,5.05,0.6
		c0.83,0.22,1.53,0.74,2.04,1.42c0.87,1.18,1.84,2.26,2.84,3.32c0.7,0.74,1,1.63,1,2.63c0,1.33,0.17,2.6,0.93,3.75
		c0.33,0.5,0.37,1.12,0.38,1.72c0.03,1.53-0.03,3.06-0.26,4.58c-0.34,2.23-0.25,4.48-0.44,6.72c-0.1,1.18-0.33,2.16-1.29,2.92
		c-0.52,0.4-0.88,0.96-1.07,1.57c-0.45,1.42-1.36,2.51-2.41,3.5c-0.97,0.92-1.99,1.77-2.95,2.7c-0.66,0.64-1.42,1.05-2.29,1.29
		c-0.81,0.22-1.51,0.62-2.05,1.26c-0.4,0.46-0.88,0.79-1.48,0.93c-0.89,0.21-1.76,0.49-2.61,0.83c-0.82,0.33-1.65,0.24-2.45-0.12
		c-0.56-0.26-1.13-0.5-1.74-0.63c-1.11-0.24-2.07-0.68-2.91-1.49c-0.93-0.9-2.09-0.86-3.17-0.02c-0.97,0.76-2,1.24-3.26,1.17
		c-1.34-0.07-2.23-0.72-2.6-2.01c-0.18-0.62-0.23-1.26-0.2-1.91c0.22-4.07,0.68-8.12,1.14-12.16c0.28-2.5,0.5-5.01,0.68-7.52
		c0.23-3.15,0.46-6.3,1.22-9.39c0.25-1.02,0.13-2.07,0-3.1c-0.17-1.34-0.03-2.66,0.22-3.97c0.18-0.92,0.29-1.85,0.14-2.79
		c-0.17-1.07-0.81-1.65-1.8-1.93c-0.78-0.21-1.57-0.17-2.36-0.12c-1.22,0.07-2.35-0.18-3.39-0.85c-1.17-0.75-1.93-2.96-1.51-4.43
		c0.38-1.33,1.71-2.29,3.26-2.34C691.23,174.74,692,174.76,693.13,174.76 M709.28,221.63c1.15-0.01,2.74-0.39,3.58-1.04
		c1.93-1.5,3.71-3.17,5.36-4.98c0.67-0.73,0.84-1.62,0.52-2.56c-0.3-0.89-0.29-1.78-0.12-2.7c0.27-1.5,0.07-3.08,0.65-4.53
		c0.85-2.11,0.27-3.87-1.23-5.42c-0.65-0.67-1.14-1.42-1.35-2.34c-0.16-0.68-0.51-1.27-1.17-1.54c-1.06-0.43-2.01-1.05-3.04-1.54
		c-1.34-0.64-2.67-0.71-4.01,0.16c-1.86,1.21-3.68,2.47-5.63,3.53c-0.56,0.3-1.07,0.7-1.2,1.34c-0.41,2.13-1.1,4.2-1.16,6.4
		c-0.06,1.82-0.02,3.65-0.25,5.47c-0.11,0.86,0.03,1.67,0.51,2.41c0.32,0.5,0.56,1.05,0.7,1.63c0.21,0.9,0.75,1.55,1.55,1.98
		c1.17,0.62,2.17,1.45,3.11,2.37C706.98,221.14,708.01,221.67,709.28,221.63"/>
	<path d="M789.33,188.57c1.09,0,1.83-0.03,2.57,0.01c0.98,0.04,1.9,0.32,2.68,0.94c0.65,0.51,1.37,0.88,2.14,1.16
		c0.44,0.16,0.86,0.38,1.23,0.67c1.87,1.46,4.01,1.46,5.9-0.02c0.75-0.59,1.63-0.82,2.54-0.95c1.09-0.17,2.08-0.53,3.04-1.08
		c1.85-1.04,3.78-1.01,5.66-0.02c0.66,0.35,1.3,0.72,1.99,0.98c0.58,0.22,1.1,0.56,1.54,1.01c0.96,0.99,2,1.92,2.87,3
		c0.4,0.49,0.63,1.04,0.73,1.67c0.36,2.2,0.45,4.37,0.1,6.62c-0.33,2.1-0.15,4.29-0.4,6.42c-0.3,2.49-0.25,5.04-1.01,7.47
		c-0.14,0.45-0.18,0.92-0.17,1.39c0.02,1.56,0.71,2.6,2.21,3.04c1.09,0.32,2.04,0.86,2.95,1.5c1.4,0.99,1.64,2.88,0.42,4.1
		c-1.05,1.06-2.26,1.76-3.87,1.7c-1.42-0.06-2.76-0.17-4.08-0.82c-1.46-0.71-3.1-0.42-4.68-0.34c-1.28,0.06-2.56,0.19-3.84,0.22
		c-1.41,0.04-2.02-0.42-2.48-1.75c-0.88-2.5,0.35-4.2,3.01-4.17c1.11,0.01,2.22,0.15,3.32-0.1c2.15-0.48,3.41-2.42,2.91-4.56
		c-0.59-2.55-1.13-5.11-1.53-7.69c-0.11-0.69-0.06-1.4,0.27-2.03c0.86-1.62,0.69-3.3,0.36-4.99c-0.11-0.58-0.33-1.14-0.43-1.73
		c-0.3-1.85-1.41-3.11-2.93-4.07c-1.16-0.74-3.03-0.59-4.28,0.5c-1.16,1-2.45,1.81-3.62,2.8c-1.82,1.54-3.33,3.38-5.1,4.94
		c-1.61,1.42-1.87,3.07-1.88,4.97c-0.01,1.09-0.09,2.17-0.14,3.26c-0.05,1.2-0.5,2.24-1.21,3.2c-0.99,1.34-0.85,2.5,0.21,3.75
		c0.84,0.98,1.8,1.65,3.11,1.82c1.05,0.14,1.67,0.89,2.18,1.74c0.13,0.22,0.16,0.46,0.15,0.71c-0.06,1.57-1.72,3.23-3.27,3.25
		c-4.54,0.06-9.09,0.23-13.63,0.15c-0.65-0.01-1.28-0.05-1.91-0.22c-0.88-0.24-1.42-0.79-1.57-1.68c-0.15-0.89-0.05-1.75,0.72-2.36
		c1.3-1.02,2.69-1.77,4.43-1.83c2.59-0.09,3.64-1.41,3.22-3.98c-0.3-1.83-0.11-3.58,0.41-5.34c0.42-1.42,0.86-2.83,1.31-4.23
		c0.53-1.66,0.46-3.43-0.31-5.07c-0.46-0.97-0.72-1.98-0.84-3.05c-0.27-2.28-1.13-3.19-3.41-3.49c-1.3-0.17-2.32-0.82-3.24-1.66
		c-1.08-0.99-0.87-2.81,0.27-3.88C785.58,188.94,787.42,188.14,789.33,188.57"/>
	<path d="M1098.57,187.64c3.66-0.11,6.6,1,9.22,3.03c1.52,1.18,3.85,1.15,5.23-0.17c0.68-0.65,1.44-1.03,2.38-1.04
		c1.1-0.01,2.04-0.41,2.96-1.01c1.5-0.98,3.15-0.96,4.74-0.26c0.9,0.4,1.75,0.91,2.71,1.16c0.33,0.08,0.64,0.26,0.89,0.51
		c1.13,1.07,2.24,2.16,3.39,3.2c0.7,0.63,1.01,1.41,1.21,2.3c0.57,2.56,0.7,5.17,0.89,7.78c0.23,3.08,0.24,6.16,0.56,9.24
		c0.12,1.19-0.12,2.41-0.11,3.62c0.01,2.24,0.81,3.16,3,3.6c1.08,0.22,2.07,0.71,2.93,1.38c1.41,1.1,1.41,3.5,0.13,4.73
		c-1.76,1.69-3.85,1.62-5.81,0.83c-2.46-0.99-4.9-0.99-7.42-0.69c-1.04,0.12-2.07,0.11-3.09-0.15c-1.27-0.31-2.5-2.2-2.3-3.51
		c0.2-1.33,1.61-2.37,3.12-2.3c0.62,0.03,1.23,0.1,1.85,0.1c2.72-0.03,4.37-2.4,3.19-4.84c-1.02-2.12-1.44-4.4-2.24-6.58
		c-0.34-0.94-0.35-1.93-0.08-2.92c0.51-1.9,0.2-3.74-0.61-5.48c-0.61-1.31-1.05-2.71-2.17-3.76c-1.98-1.88-3.62-1.96-5.76-0.25
		c-2.45,1.96-4.34,4.42-6.41,6.74c-1.81,2.02-1.95,4.13-1.56,6.52c0.14,0.88,0.27,1.76,0.28,2.65c0.01,0.86-0.18,1.65-0.58,2.42
		c-0.92,1.72-0.74,2.6,0.69,3.92c0.7,0.65,1.48,1.16,2.44,1.31c1.45,0.24,2.3,1.25,3.09,2.35c0.18,0.25,0.23,0.55,0.21,0.85
		c-0.1,1.57-1.64,3.15-3.19,3.01c-4.54-0.41-9.08,0.24-13.62-0.16c-1.97-0.17-2.95-0.69-2.99-3.09c-0.01-0.46,0.15-0.89,0.55-1.16
		c1.19-0.8,2.36-1.58,3.89-1.65c2.18-0.09,3.11-1.31,2.78-3.49c-0.04-0.29-0.11-0.58-0.2-0.86c-0.42-1.32-0.55-2.65-0.33-4.02
		c0.26-1.63,0.37-3.26,0.82-4.88c0.51-1.81,0.18-3.63-1.03-5.19c-0.54-0.7-0.86-1.48-1.03-2.35c-0.5-2.7-1.21-3.41-3.9-3.89
		c-1.36-0.24-2.41-1.01-3.31-1.98c-0.88-0.94-0.74-2.56,0.08-3.62C1095.29,187.97,1096.92,187.4,1098.57,187.64"/>
	<path d="M953.42,194.29c0,0.9,0.02,1.77-0.01,2.63c-0.02,0.76,0.13,1.46,0.49,2.14c0.76,1.44-0.25,3.36-1.9,3.43
		c-2.68,0.1-4.48-0.62-5.75-3.07c-0.55-1.06-1.18-2.05-2.05-2.88c-0.6-0.57-1.31-0.88-2.12-0.96c-2.61-0.27-5.23-0.27-7.84-0.17
		c-1.81,0.06-3.15,1.09-4.16,2.52c-0.72,1.02-0.64,2.13,0.17,3.08c0.78,0.91,1.72,1.62,2.93,1.92c0.57,0.14,1.15,0.29,1.7,0.52
		c0.82,0.34,1.63,0.4,2.46,0.13c1.36-0.44,2.64-0.42,3.92,0.33c1.02,0.6,2.23,0.52,3.34,0.48c2.28-0.07,3.9,1.04,5.3,2.64
		c0.63,0.72,1.42,1.22,2.19,1.75c1.29,0.89,2.11,2.18,2.76,3.52c0.63,1.29,0.27,2.73-0.2,4.04c-0.36,1-0.71,1.99-0.84,3.06
		c-0.08,0.71-0.46,1.3-0.92,1.83c-0.85,1.01-1.93,1.76-2.91,2.63c-0.54,0.48-1.27,0.54-1.97,0.47c-1.27-0.14-2.21,0.29-3.16,1.21
		c-1.21,1.19-2.67,2.11-4.55,1.92c-0.86-0.09-1.73-0.03-2.59-0.04c-0.57-0.01-1.16-0.03-1.67-0.27c-2.61-1.25-5.37-1.12-8.14-0.97
		c-1.12,0.06-2.21,0.24-3.23,0.73c-0.57,0.27-1.15,0.26-1.7-0.08c-0.13-0.08-0.26-0.14-0.4-0.2c-1.98-1.01-2.32-1.63-2.14-3.88
		c0.12-1.44,0.5-2.73,1.54-3.82c0.96-1,0.88-2.47-0.19-3.62c-1.21-1.3-1.21-2.73-0.66-4.27c0.1-0.29,0.26-0.53,0.49-0.73
		c1.2-1.09,3.78-0.88,4.73,0.42c0.7,0.95,1.26,1.99,1.85,3.02c0.87,1.53,1.86,2.99,2.82,4.47c1.23,1.9,3.24,2.55,5.47,2.54
		c1.51,0,3.01,0.09,4.47,0.52c0.36,0.11,0.75,0.14,1.1,0.03c2.37-0.77,4.67-1.65,6.02-3.98c0.27-0.47,0.62-0.89,0.88-1.37
		c0.6-1.09,0.47-2.1-0.41-2.98c-2.82-2.82-6.11-4.6-10.2-4.7c-1.55-0.04-3.1-0.25-4.65-0.38c-0.5-0.04-1-0.14-1.39-0.45
		c-1.31-1.05-2.84-1.06-4.38-0.98c-3.2,0.16-4.09-0.37-5.3-3.33c-0.35-0.85-0.75-1.67-1.32-2.39c-0.12-0.15-0.27-0.33-0.3-0.5
		c-0.34-2.1-0.51-4.26,0.75-6.07c1.2-1.71,2.87-2.97,4.64-4.17c1.58-1.07,3.13-1.6,5-1.63c1.38-0.03,2.65-0.74,4.04-0.88
		c1.9-0.18,3.78-0.44,5.57,0.58c0.68,0.38,1.47,0.41,2.24,0.4c2.37-0.01,4.74-0.02,7.11-0.03c0.37,0,0.74,0.02,1.11,0.07
		c1.12,0.17,1.64,0.71,1.8,1.83C953.47,191.66,953.32,193,953.42,194.29"/>
	<path d="M1052.96,207.12c-0.54-3.09,0.08-6.05,1.01-8.97c0.01-0.02,0.02-0.05,0.02-0.07c0.39-3.04,2.56-4.78,4.66-6.66
		c1.45-1.3,3.13-1.63,4.88-2.17c3-0.94,6.01-0.95,9.07-0.85c0.46,0.01,0.88,0.14,1.27,0.35c0.7,0.38,1.43,0.67,2.2,0.86
		c0.54,0.13,1.02,0.39,1.4,0.8c0.59,0.65,1.34,1,2.18,1.18c0.81,0.17,1.55,0.51,2.2,1.02c1.17,0.91,2.31,1.85,3.34,2.92
		c1.77,1.86,2.4,4.22,2.5,6.66c0.1,2.38,0.4,4.71,0.64,7.06c0.25,2.55,0.14,5.13-0.97,7.55c-0.27,0.59-0.37,1.23-0.39,1.88
		c-0.02,0.7-0.28,1.28-0.78,1.78c-1.44,1.46-2.77,3.03-4.36,4.33c-0.4,0.33-0.8,0.67-1.29,0.84c-0.8,0.27-1.53,0.67-2.28,1.05
		c-1.24,0.62-2.59,0.55-3.92,0.49c-0.71-0.03-1.43-0.11-2.14-0.07c-1.09,0.06-2.17,0.06-3.2-0.41c-0.67-0.3-1.37-0.15-2.03,0.06
		c-1.03,0.33-1.99,0.24-2.92-0.3c-0.72-0.41-1.52-0.59-2.32-0.73c-0.85-0.15-1.45-0.62-2.02-1.26c-1.35-1.49-2.19-3.35-3.6-4.78
		c-0.03-0.04-0.07-0.08-0.09-0.12c-1.43-3-3.08-5.92-2.99-9.41C1053.04,209.14,1053.05,208.13,1052.96,207.12 M1081.05,210.68
		c-0.31-1.88-0.21-3.76-0.51-5.57c-0.31-1.89-0.85-3.8-2.41-5.21c-0.77-0.69-1.42-1.51-2.1-2.29c-1.51-1.74-2.46-1.98-4.61-1.13
		c-1.42,0.56-2.81,0.64-4.2-0.15c-1.02-0.58-1.59-0.46-2.48,0.32c-1.27,1.12-2.21,2.52-3.29,3.8c-0.46,0.54-0.78,1.16-0.86,1.86
		c-0.11,1.01-0.59,1.78-1.24,2.54c-0.85,0.99-1.38,2.21-0.96,3.5c0.62,1.92,0.75,4.07,2.41,5.55c0.14,0.13,0.22,0.33,0.31,0.5
		c0.93,1.78,2.35,3.15,3.87,4.42c1.37,1.14,3.1,1.61,4.63,2.45c0.82,0.45,1.69,0.16,2.45-0.36c0.55-0.38,1.13-0.75,1.8-0.83
		c1.51-0.19,2.79-0.95,4.15-1.54c0.77-0.33,1.28-0.94,1.52-1.73c0.41-1.29,0.8-2.59,1.14-3.91
		C1080.85,212.16,1080.93,211.4,1081.05,210.68"/>
	<path d="M1028.04,216.88c0.09-1.47-0.33-2.8-0.88-4.16c-0.67-1.66-0.84-3.45-0.73-5.24c0.14-2.27,0.26-4.53-0.03-6.8
		c-0.06-0.44-0.08-0.9,0.01-1.33c0.66-3.29,0.19-6.6,0.15-9.89c-0.01-0.76-0.05-1.53-0.06-2.29c-0.01-0.7-0.11-1.37-0.33-2.04
		c-0.35-1.07-1.05-1.71-2.15-2.03c-1.6-0.46-3.25-0.23-4.86-0.44c-1.23-0.16-2.45-0.12-3.68,0.05c-1.12,0.16-2.27-0.06-3.38-0.29
		c-0.75-0.15-1.49-0.37-2.22-0.59c-1.32-0.38-1.78-1.19-1.46-2.53c0.2-0.87,0.68-1.6,1.21-2.27c1.38-1.76,3.04-3.01,5.46-2.85
		c1.28,0.09,2.56,0.11,3.83,0.38c1.07,0.23,2.16,0.29,3.24,0.16c3.02-0.36,5.85,0.38,8.6,1.48c2.52,1.01,3.55,3.19,2.88,5.79
		c-0.28,1.08-0.13,2.11,0.09,3.15c0.25,1.21,0.5,2.41,0.49,3.66c0,1.26-0.2,2.43-0.84,3.55c-0.73,1.28-0.71,2.71,0.1,3.88
		c1.46,2.1,1.19,4.41,1.13,6.72c-0.01,0.48-0.23,0.91-0.48,1.31c-0.52,0.85-0.75,1.76-0.71,2.75c0.03,0.64-0.02,1.29,0.02,1.93
		c0.05,1.04-0.11,2-0.68,2.9c-0.49,0.77-0.59,1.67-0.58,2.57c0.01,1.09,0.06,2.17,0.09,3.26c0.03,1.29,0.67,2.11,1.86,2.57
		c1.78,0.69,3.6,0.81,5.46,0.45c0.7-0.13,1.42-0.22,2.12-0.32c0.98-0.14,1.93-0.03,2.83,0.38c0.86,0.39,1.74,0.69,2.68,0.83
		c1.14,0.19,1.84,0.83,2.13,1.98c0.3,1.17-0.08,2.06-0.94,2.84c-1.64,1.48-3.54,1.23-5.38,0.69c-1.18-0.34-2.27-0.58-3.45-0.1
		c-0.56,0.23-1.13,0.05-1.62-0.28c-0.97-0.67-1.99-0.79-3.1-0.38c-1.74,0.64-3.47,0.61-5.2-0.11c-1.5-0.62-3.07-0.29-4.62-0.26
		c-3.33,0.07-6.66,0.14-10,0.21c-0.22,0-0.44-0.03-0.66-0.06c-0.95-0.1-1.83-0.35-2.15-1.39c-0.35-1.15-0.26-2.21,0.61-3.17
		c1.17-1.3,2.61-1.56,4.19-1.21c1.69,0.38,3.36,0.44,5.07,0.25c1.02-0.11,2.07-0.02,3.11-0.03c2.19-0.01,2.88-0.7,2.88-2.89
		C1028.08,217.43,1028.05,217.16,1028.04,216.88"/>
</g>
<path d="M1090.97,258.2c-0.47,0.9-0.67,1.02-1.83,1.9c-2.57,1.97-5.57,4.22-11.23,2.34c-9-3.06-17.43-7.94-26.57-7.62
	c-5.89,0.2-12-1.52-18-1.01c-6.49,0.56-18.17-1.58-21.92-0.55c-2.04,0.37-5.72,0.08-7.24,0.17c-3.36,0.18-6.39-0.58-10.55,0.09
	c-2.72,0.45-6.21-0.19-8.98-0.12c-12.64,0.33-25.29,0.59-37.93,0.74c-15.52,0.16-31.02,0-46.53-0.77
	c-15.09-0.75-30.22-0.36-45.32-0.91c-3.01-0.1-5.96-0.43-8.9-1.09c-2.41-0.54-4.16-0.06-7.19,0.29c-1.42,0.17-2.8,0.22-4.24,0
	c-5.39-0.91-10.89-1.91-16.17-1.52c-10.29,0.77-20.13,0.86-29.88-0.72c-10.45-1.74-20.81,1.19-31.21-0.11
	c-5.35-0.65-17.17,1.58-17.73,5.05c-0.72,4.57,3.76,8.65,8.78,9.26c13.69,1.67,27.18-0.33,40.72-1.55c2.04-0.2,4.16,0.31,6.23,0.22
	c9.09-0.31,18.17-0.72,27.25-1.08c0.76-0.04,25.95-1.06,36.75,4.18c1.87,0.93,4.84,0.42,6.65,0.62c6.65,0.6,11.62-0.5,18.13-1.9
	c4.46-0.92,8.74,1.2,13.16,2.58c10.42,3.27,22.62,0.04,29.2-0.99c7.43-1.12,14.8,0.59,22.07,2.06c1.77,0.36,3.53,0.84,5.25,1.39
	c4.43,1.44,8.23-0.69,12.2-1.74c7.97-2.16,15.7-3.88,23.85,0.09c4.63,2.31,9.13,0.37,14.1-0.33c4.72-0.65,9.4-1.48,13.94-3.22
	c5.92-2.24,11.81,1.26,16.25,4.46c6.7,4.85,13.65,9.14,21.78,11.55c4.76,1.42,9.51,2.22,14.23-0.44c3.22-1.82,8.62-0.98,10.34,1.71
	c1.77,2.73,0.98,5.52-1.26,7.9c-2.59,2.28-7.48,1.49-11.76-0.22c-3.89-2.96-9.09-3.72-12.98-6.46c-5.2-3.67-11.39-5.66-16.62-9.47
	c-3.57-2.56-7.72-5.13-12.14-6.79c-2.88-1.09-5.67-0.84-8.72,0.07c-9.99,2.89-19.8,7.13-30.74,2.51
	c-5.96-2.53-12.47-0.28-18.41,0.64c-2.99,0.43-6.56,1.2-9.71,2.23c-2.58,0.9-5.18,0.74-7.73,0.21c-5.59-1.2-11.14-2.6-16.71-3.84
	c-3.1-0.73-5.82-0.23-8.89,0.92c-8.35,3.15-17.09,3.87-25.73,0.57c-5.39-2.03-10.77-2.48-16.71-1.83
	c-6.79,0.72-10.49,2.27-17.27,3.42c-2.45,0.41-6.39-0.67-6.99-0.89c-10.78-4.48-20.48-4.97-31.81-5.4c-7.7-0.3-14.4-0.16-22,1.17
	c-0.62,0.09-2.57,0.28-3.21,0.25c-8.48-0.4-16.49,0.7-24.46,1.9c-9.61,1.43-18.96,0.7-28.35-0.21c-4.16-0.4-7.7-2.33-10.31-6.11
	c-1.14-1.65-2.33-4.37-2.48-6.68c-0.24-3.96,1.84-5.85,6.5-7.52c9.55-3.43,49.85-2.48,61.03-0.45c3.29,0.58,2.42,0.66,6.36,0.38
	c2.45-0.17,8.16-0.34,10.49,0.09c2.97,0.54,6.09,0.43,9.25,0.57c4.81,0.19,9.65-0.37,14.43-0.08c9.65,0.61,19.21,1.63,29.02,1.03
	c8.1-0.49,16.06,1.85,24.45,1.14c7.16-0.62,14.6,1.08,22.03,0.31c4.96-0.53,9.74,1.39,15.17,0.1c5.31-1.25,11.38,0.31,17.23,0.14
	c10.36-0.29,20.73-0.06,31.11,0.36c7.41,0.32,13.18-1,20.67-0.38c2.94,0.23,5.95,0.19,8.13,0.08c7.68-0.37,10.2,0.8,17.59,0.45
	c9.16-0.46,18.37,0.71,27.61,0.71c6.47,0,13.51,0.81,17.39,0.11c4.33-0.79,11.44-3.17,15.32-1.1
	C1091.52,252.91,1091.73,256.55,1090.97,258.2"/>
</svg>
